<?xml version="1.0" standalone="no"?>
<!DOCTYPE svg PUBLIC "-//W3C//DTD SVG 20010904//EN"
        "http://www.w3.org/TR/2001/REC-SVG-20010904/DTD/svg10.dtd">
<svg xmlns="http://www.w3.org/2000/svg"
     width="1280.000000pt" height="1280.000000pt" viewBox="0 0 1280.000000 1280.000000"
     preserveAspectRatio="xMidYMid meet">
    <g transform="translate(0.000000,1280.000000) scale(0.100000,-0.100000)"
       fill="#000000" stroke="none">
        <path d="M6030 12789 c-1588 -98 -3036 -748 -4154 -1865 -1677 -1676 -2286
-4121 -1595 -6401 435 -1436 1409 -2714 2686 -3525 1884 -1196 4256 -1325
6255 -341 1877 924 3185 2703 3502 4763 200 1304 -1 2625 -581 3802 -829 1684
-2364 2929 -4171 3382 -627 158 -1317 223 -1942 185z m765 -39 c83 -5 174 -12
203 -16 47 -6 51 -8 40 -23 -12 -14 -11 -15 5 -2 28 22 94 17 385 -30 150 -24
382 -71 517 -105 164 -41 470 -131 520 -153 11 -5 70 -26 130 -46 215 -73 591
-244 845 -383 175 -95 500 -298 500 -311 0 -24 214 -231 240 -231 4 0 11 -7
14 -16 4 -11 2 -15 -8 -11 -11 4 -13 1 -9 -11 6 -15 4 -15 -15 1 -20 18 -20
18 -15 -2 3 -13 42 -46 91 -79 46 -31 104 -74 127 -94 23 -21 46 -38 50 -38 4
0 39 -24 79 -53 142 -106 135 -74 -15 73 -53 52 -122 115 -153 140 -30 25 -55
50 -56 56 0 7 -18 28 -41 49 -22 20 -39 38 -37 40 2 3 45 -31 95 -75 50 -43
93 -77 96 -74 13 14 507 -435 507 -461 0 -6 14 -23 30 -39 30 -29 43 -59 16
-37 -8 7 -25 14 -37 16 -13 3 -31 14 -41 25 -9 11 -23 20 -30 20 -8 0 -49 44
-90 98 -84 109 -224 259 -308 330 -30 26 7 -15 83 -91 120 -120 165 -174 125
-151 -8 4 -10 3 -5 -2 5 -5 14 -9 20 -9 7 0 12 -6 12 -12 0 -7 3 -12 7 -10 10
3 83 -95 83 -113 0 -8 5 -14 12 -13 7 2 10 -3 7 -10 -2 -7 15 -32 39 -57 49
-51 79 -92 126 -169 l33 -54 -49 28 c-26 16 -61 38 -78 50 -46 34 -85 58 -85
52 0 -3 52 -40 115 -82 63 -43 115 -82 115 -87 0 -11 -13 -4 -61 34 -20 15
-42 28 -47 28 -14 0 -25 -37 -16 -52 5 -8 2 -9 -9 -5 -14 5 -16 2 -11 -19 6
-24 5 -26 -27 -23 -19 2 -40 7 -47 12 -7 6 -15 7 -18 4 -3 -3 6 -13 20 -22 33
-22 33 -39 1 -33 -14 3 -25 3 -25 1 0 -10 33 -53 42 -53 5 0 24 -12 43 -26 33
-25 34 -25 45 -5 10 20 12 20 41 6 39 -21 51 -12 43 33 -6 33 -5 35 8 24 13
-11 17 -9 22 13 9 37 34 31 42 -9 3 -19 14 -42 25 -52 22 -20 43 -79 33 -95
-5 -8 -2 -10 7 -5 8 4 5 0 -6 -9 -11 -9 -20 -23 -20 -32 0 -9 -9 -21 -20 -27
-11 -6 -23 -15 -26 -20 -4 -5 -12 -5 -18 -2 -6 4 -11 2 -11 -4 0 -6 -17 -2
-40 10 l-40 20 -6 -25 c-5 -19 -1 -32 14 -48 11 -12 32 -44 46 -72 14 -27 36
-62 48 -77 19 -25 20 -32 11 -75 -10 -40 -8 -53 7 -83 18 -34 60 -81 60 -65 0
4 11 -3 25 -17 26 -27 85 -143 85 -169 0 -9 8 -27 18 -40 25 -36 44 -70 39
-75 -2 -2 -32 21 -66 52 -34 32 -75 66 -91 78 -16 12 -80 62 -144 111 -132
104 -258 195 -369 266 -61 40 -81 59 -93 89 -9 22 -31 51 -50 65 -18 14 -42
44 -53 68 -31 65 -60 112 -69 112 -13 0 -102 81 -102 93 0 6 6 13 13 16 8 4 7
5 -3 5 -8 -1 -20 -1 -27 0 -14 1 -79 129 -75 147 4 19 -37 47 -75 51 -21 2
-45 11 -54 19 -9 8 -22 12 -30 9 -21 -7 -163 67 -167 87 -2 10 -19 33 -39 53
-20 20 -33 38 -30 41 3 3 28 -6 56 -20 28 -15 51 -22 51 -16 0 16 16 12 41
-12 73 -68 87 -78 122 -82 34 -5 37 -3 32 14 -7 22 10 28 18 8 3 -7 6 -8 6 -2
1 5 -12 23 -29 39 -35 34 -37 46 -11 65 19 13 19 14 -2 39 -12 13 -40 43 -62
65 -76 76 -110 137 -67 122 20 -7 -36 44 -94 84 -22 16 -58 32 -80 35 -21 4
-54 16 -72 26 -18 10 -38 19 -44 19 -6 0 -27 12 -45 26 l-35 26 27 18 c24 16
25 18 8 25 -41 17 -88 23 -105 14 -38 -20 -153 60 -177 124 -6 15 -19 30 -28
34 -10 3 -49 38 -88 78 -38 39 -59 58 -45 42 14 -17 33 -38 42 -48 10 -10 15
-26 11 -34 -4 -11 1 -18 16 -22 11 -3 21 -10 21 -17 0 -6 17 -27 38 -47 62
-59 72 -75 77 -112 6 -45 -4 -52 -51 -32 -20 8 -62 15 -93 15 -32 1 -70 8 -89
18 -18 9 -82 43 -143 75 -112 59 -149 73 -149 56 0 -5 4 -9 10 -9 5 0 7 -6 5
-12 -3 -7 -1 -17 3 -23 10 -14 99 -55 120 -55 22 0 122 -42 122 -51 0 -4 12
-14 28 -22 15 -8 54 -31 87 -51 33 -20 71 -39 85 -42 14 -3 32 -8 40 -11 34
-13 63 -13 79 0 27 24 57 29 71 12 7 -8 19 -15 26 -15 8 0 24 -9 36 -19 13
-11 37 -31 53 -46 17 -14 41 -28 55 -32 14 -3 42 -14 63 -25 20 -10 37 -16 37
-13 0 4 43 -18 89 -46 11 -8 21 -21 21 -29 0 -19 43 -60 64 -60 15 0 46 -47
46 -72 0 -9 -3 -9 -12 0 -7 7 -23 12 -36 12 -13 0 -33 5 -44 11 -21 11 -203
17 -213 7 -3 -3 24 -34 60 -70 36 -36 65 -74 65 -84 0 -18 -39 -44 -67 -44 -7
0 -22 10 -33 23 -16 16 -19 17 -15 5 9 -24 -10 -23 -34 1 -11 11 -22 17 -25
14 -3 -4 -6 1 -6 10 0 9 -4 18 -9 21 -5 4 -7 -3 -4 -13 5 -19 3 -19 -59 -5
-34 8 -80 24 -100 34 -21 11 -38 16 -38 12 -1 -4 -7 8 -15 26 -8 18 -18 31
-23 28 -8 -5 -62 46 -62 59 0 10 -28 35 -39 35 -6 0 -11 6 -11 13 0 7 -29 30
-65 52 -35 22 -64 46 -65 53 0 6 -11 12 -25 12 -13 0 -28 6 -32 14 -8 14 -86
49 -150 68 -18 5 -33 13 -33 18 0 6 -6 10 -14 10 -7 0 -19 6 -25 14 -6 8 -31
19 -55 25 -23 6 -53 19 -67 29 -13 9 -51 30 -84 46 -33 15 -67 32 -75 37 -8 5
-25 13 -37 19 -44 18 -25 30 40 24 34 -3 70 -7 80 -9 9 -2 15 0 12 4 -2 5 -41
11 -86 14 -85 7 -163 33 -155 53 4 10 -31 29 -87 47 -9 4 -22 18 -29 32 -6 13
-19 27 -28 30 -18 6 -29 44 -22 78 4 21 35 15 66 -12 18 -15 18 -15 7 7 -6 12
-18 22 -26 22 -8 0 -15 4 -15 9 0 5 -3 17 -7 27 -5 13 -3 16 10 11 22 -8 21
-1 -2 24 -13 14 -20 40 -23 87 -5 81 5 94 72 88 l45 -4 -37 10 c-20 6 -42 21
-49 35 -14 26 -41 30 -63 8 -8 -8 -32 -15 -54 -15 -26 0 -42 -5 -46 -15 -4
-12 -10 -10 -32 10 -15 14 -31 25 -35 25 -13 0 -10 12 6 34 13 17 15 17 37 2
25 -18 58 -21 58 -6 0 16 -33 28 -95 33 -33 3 -85 13 -115 22 -30 9 -84 23
-120 31 -73 17 -100 34 -54 35 24 0 20 3 -21 15 -27 8 -68 19 -90 24 -60 13
-77 21 -71 35 6 16 -40 7 -55 -11 -6 -8 -19 -14 -29 -14 -26 0 -107 47 -170
98 -46 37 -56 41 -59 26 -2 -10 5 -24 15 -31 16 -12 17 -15 4 -23 -8 -5 -22
-10 -30 -10 -12 0 -13 -2 -1 -9 11 -7 10 -11 -7 -20 -11 -6 -32 -11 -46 -11
-14 0 -51 -12 -82 -27 -41 -20 -58 -25 -61 -15 -3 6 -16 12 -29 12 -14 0 -34
5 -45 10 -25 14 -10 45 25 54 16 4 23 11 20 20 -3 8 3 22 13 32 40 41 46 53
33 69 -10 12 -9 15 7 15 10 0 24 5 29 10 6 6 34 13 63 17 29 3 47 9 41 13 -13
8 -17 8 -102 -11 -36 -7 -58 -17 -58 -26 0 -7 -6 -13 -12 -13 -9 0 -9 -3 1 -9
12 -8 12 -13 -3 -35 -9 -14 -23 -26 -31 -26 -18 0 -20 -30 -2 -30 25 -1 -28
-30 -55 -30 -17 0 -31 -7 -38 -20 -13 -24 -30 -17 -30 12 0 19 -4 20 -50 14
-39 -5 -58 -2 -89 14 -22 11 -46 20 -53 19 -7 0 -3 -5 10 -11 17 -8 22 -19 20
-37 -3 -26 -4 -26 -103 -29 -61 -2 -94 -6 -86 -11 19 -12 6 -42 -14 -35 -8 3
-15 2 -15 -3 0 -11 -51 -29 -110 -38 -25 -4 -50 -12 -57 -17 -6 -5 -40 -11
-75 -12 -81 -4 -80 -4 -73 -16 3 -5 -1 -10 -10 -10 -9 0 -23 15 -31 33 -10 22
-13 24 -9 7 11 -43 7 -63 -19 -89 -28 -27 -82 -37 -105 -18 -8 7 -49 11 -108
9 -82 -2 -99 1 -124 19 -37 26 -36 35 4 77 30 31 31 33 7 24 -14 -5 -31 -7
-39 -4 -7 2 -17 -1 -21 -8 -5 -9 -13 -9 -26 -2 -14 8 -28 5 -57 -10 -28 -14
-64 -21 -123 -23 -89 -3 -123 -17 -103 -41 13 -15 4 -20 -100 -52 -68 -21
-111 -17 -178 14 -18 8 -45 13 -60 10 -16 -2 -35 -5 -43 -5 -10 -1 -8 -6 8
-17 35 -24 28 -44 -17 -44 -30 0 -42 -5 -55 -25 -9 -14 -23 -25 -31 -25 -8 0
-25 -11 -37 -25 -12 -14 -29 -25 -37 -26 -11 0 -12 -2 -3 -6 7 -3 19 0 26 6
18 15 51 1 53 -24 1 -19 -25 -40 -205 -157 -15 -10 -39 -17 -54 -16 -14 1 -32
-3 -40 -8 -7 -6 -29 -17 -48 -24 -46 -18 -70 -39 -70 -63 0 -29 -39 -78 -76
-93 -18 -8 -52 -14 -74 -14 -44 0 -86 -31 -76 -55 3 -8 1 -17 -4 -20 -6 -4
-10 -15 -10 -26 0 -10 -4 -19 -10 -19 -13 0 -33 -40 -34 -70 -1 -19 -7 -26
-26 -28 -14 -2 -29 -9 -35 -16 -5 -7 -19 -17 -30 -24 -30 -16 4 -26 41 -11 30
12 84 22 84 15 0 -2 -11 -23 -24 -47 -13 -24 -26 -57 -27 -74 -2 -16 -16 -45
-31 -63 -16 -18 -28 -39 -28 -46 0 -7 -21 -23 -47 -35 -27 -12 -38 -20 -25
-18 29 7 28 -2 -3 -33 -14 -14 -46 -54 -71 -89 -25 -35 -54 -65 -64 -68 -14
-4 -16 -12 -12 -50 3 -33 1 -49 -9 -57 -8 -6 -27 -29 -43 -51 -16 -22 -31 -42
-33 -45 -2 -2 -8 2 -13 10 -7 11 -12 11 -23 2 -18 -15 -48 -5 -41 13 9 22 -84
12 -100 -10 -12 -17 -13 -17 -21 1 -14 34 -13 42 6 60 10 9 19 25 19 35 0 10
12 26 28 36 43 27 53 42 39 64 -10 17 -8 23 18 44 17 13 36 22 43 20 6 -2 12
0 12 5 0 5 -10 10 -22 12 -16 3 -6 9 36 21 32 10 56 20 54 22 -2 2 -25 -2 -51
-10 -54 -16 -90 -34 -68 -35 11 0 11 -3 1 -15 -28 -34 -120 3 -105 43 2 6 -3
12 -11 12 -9 0 -14 -6 -11 -12 4 -13 -48 -58 -66 -58 -4 0 -28 -13 -52 -30
-50 -34 -102 -42 -90 -12 20 46 17 68 -14 95 -17 14 -31 30 -31 36 0 6 -16 17
-35 26 -20 8 -43 21 -51 30 -14 14 -35 20 -59 16 -5 -1 11 18 38 43 26 24 47
47 47 51 0 9 -37 56 -44 56 -3 -1 -6 2 -6 6 0 4 6 8 13 9 29 2 32 5 33 29 1
14 12 47 25 75 25 51 53 66 63 32 5 -15 18 -18 81 -19 58 -1 75 2 75 13 0 17
-10 17 -45 4 -30 -12 -53 -4 -37 12 11 11 -8 38 -26 38 -6 0 -12 7 -16 15 -3
10 3 17 19 21 14 3 22 10 19 15 -3 5 -1 9 5 9 5 0 11 -4 13 -9 5 -14 58 0 58
15 0 8 4 14 9 14 5 0 14 14 21 31 11 26 11 32 -1 39 -7 5 -26 19 -41 31 l-27
23 21 30 c22 32 145 174 163 189 7 6 6 7 -1 5 -12 -3 -139 -147 -173 -195 -12
-18 -28 -33 -35 -33 -8 0 -19 -7 -26 -15 -16 -19 -40 -19 -40 -1 0 8 7 21 15
30 8 8 15 21 15 30 0 16 56 76 71 76 5 0 9 -6 9 -12 0 -7 8 -3 18 8 9 12 27
27 40 34 17 8 20 15 13 24 -10 12 21 47 137 155 45 42 52 52 46 75 -3 14 -11
26 -18 26 -6 0 -4 5 4 10 11 7 12 10 2 10 -9 0 -11 7 -7 20 4 12 2 20 -5 20
-7 0 -9 12 -4 35 6 35 6 36 -20 24 -14 -7 -26 -16 -26 -21 0 -4 -10 -8 -21 -8
-12 0 -27 -7 -33 -15 -6 -9 -25 -18 -41 -20 -17 -2 -32 -4 -35 -4 -3 -1 1 -5
9 -10 15 -10 -37 -48 -120 -87 -51 -24 -78 -51 -39 -39 16 5 21 3 18 -6 -5
-14 -85 -42 -168 -60 -30 -6 -64 -16 -75 -23 -11 -7 -40 -18 -65 -25 -25 -7
-77 -30 -117 -52 -40 -21 -75 -39 -78 -39 -13 0 -3 19 13 24 10 4 34 18 53 32
l34 26 -33 -7 c-18 -4 -63 -24 -100 -46 -77 -45 -101 -50 -57 -13 19 16 23 21
9 15 -33 -16 -176 -116 -207 -145 -15 -14 -31 -26 -34 -26 -3 0 -21 -11 -39
-25 -43 -33 -50 -32 -25 4 23 32 27 46 9 35 -30 -19 9 20 61 60 87 67 202 132
185 105 -4 -7 -3 -10 2 -7 45 20 70 30 144 54 111 35 150 48 236 73 74 22 126
50 88 46 -10 -1 -46 -9 -79 -19 -43 -13 -60 -15 -63 -6 -2 6 -15 15 -27 20
-44 17 -19 47 99 117 258 153 711 365 982 459 67 23 126 44 132 48 24 14 312
101 472 141 272 68 674 140 885 159 28 2 104 9 170 15 170 16 207 17 510 19
149 1 338 -3 420 -8z m788 -646 c37 -19 67 -44 67 -56 0 -4 -8 -8 -17 -9 -14
0 -13 -3 5 -11 24 -12 28 -23 12 -33 -6 -3 -49 -9 -98 -12 -48 -3 -89 -9 -92
-13 -3 -4 -30 -9 -60 -11 -30 -2 -61 -10 -69 -17 -7 -7 -21 -10 -30 -8 -9 3
-54 7 -101 8 -47 1 -100 7 -118 13 -21 8 -51 9 -83 4 -28 -4 -56 -6 -64 -3
-14 6 -29 34 -21 41 3 3 77 6 165 7 140 1 158 -1 148 -14 -8 -10 -5 -10 8 2
18 15 57 22 173 33 48 4 84 15 110 31 18 12 20 19 13 33 -18 33 3 39 52 15z
m-1393 -140 c0 -9 -5 -12 -12 -8 -8 5 -9 -2 -5 -24 11 -53 -35 -71 -90 -35
-31 20 -29 38 5 50 101 37 102 37 102 17z m76 -35 c24 -6 44 -15 44 -20 0 -5
9 -9 20 -9 11 0 20 -4 20 -10 0 -5 -7 -10 -15 -10 -9 0 -18 -7 -21 -15 -4 -8
-13 -15 -21 -15 -9 0 -11 5 -7 13 4 6 -2 3 -14 -7 -17 -14 -22 -16 -22 -5 0
12 -2 12 -9 0 -8 -12 -11 -12 -23 0 -17 17 -31 66 -23 79 8 13 16 12 71 -1z
m-1025 -149 c11 -6 19 -21 19 -36 0 -25 -2 -26 -37 -20 -21 3 -32 3 -25 0 22
-10 13 -22 -30 -42 -67 -32 -84 -34 -102 -17 -23 23 -20 31 19 61 19 14 33 30
30 34 -15 25 87 40 126 20z m2240 -321 c19 -10 31 -58 15 -60 -6 -1 -18 -1
-26 0 -12 1 -12 -1 2 -9 21 -13 68 4 68 25 0 19 26 20 37 2 7 -11 114 -32 213
-42 9 0 22 -5 29 -9 18 -12 -49 -46 -103 -52 -22 -3 -51 -11 -65 -18 -14 -8
-49 -17 -77 -21 -46 -6 -54 -4 -73 16 -11 12 -18 26 -15 31 3 5 -3 12 -14 15
-11 3 -19 10 -16 17 2 6 -3 20 -11 31 -15 19 -16 19 -4 -4 10 -21 9 -23 -6
-18 -9 4 -25 7 -36 7 -17 0 -18 3 -9 20 9 17 8 20 -8 20 -15 0 -19 6 -16 26 1
15 9 31 16 35 14 9 72 2 99 -12z m1879 -81 c0 -6 -7 -5 -15 2 -8 7 -15 17 -15
22 0 6 7 5 15 -2 8 -7 15 -17 15 -22z m-6084 -39 c0 -8 -4 -20 -9 -27 -7 -9
-1 -16 22 -25 l32 -12 -33 -12 c-32 -13 -29 -13 43 3 37 8 44 -17 19 -71 -17
-37 -24 -43 -55 -47 -21 -2 -44 2 -56 10 -23 16 -69 8 -69 -12 0 -7 -9 -21
-20 -31 -15 -14 -23 -16 -32 -7 -9 9 -25 4 -65 -19 -52 -30 -86 -32 -62 -3 16
20 -22 19 -62 -2 -17 -8 -38 -13 -46 -10 -14 6 -14 8 -1 24 9 9 14 22 11 28
-2 6 27 21 67 33 39 13 70 25 67 27 -7 7 -210 -65 -220 -78 -5 -8 -6 -3 -3 15
6 27 6 27 -31 21 -32 -5 -42 -2 -60 18 l-23 24 53 19 c28 10 68 28 87 40 34
21 78 40 220 91 54 20 79 24 145 20 58 -3 80 -8 81 -17z m254 -13 c0 -3 -4 -8
-10 -11 -5 -3 -10 -1 -10 4 0 6 5 11 10 11 6 0 10 -2 10 -4z m-210 -210 c0 -3
-4 -8 -10 -11 -5 -3 -10 -1 -10 4 0 6 5 11 10 11 6 0 10 -2 10 -4z m4022 -103
c42 -35 49 -45 43 -62 -5 -11 -3 -12 10 -1 14 11 19 10 37 -7 24 -25 17 -43
-15 -36 -19 4 -20 3 -5 -7 17 -10 17 -13 2 -43 -9 -18 -50 -65 -91 -106 -67
-67 -75 -72 -93 -60 -70 50 -194 136 -213 148 -39 24 22 -25 83 -66 30 -21 57
-40 60 -43 3 -3 21 -16 41 -29 l36 -25 -26 -21 c-32 -27 -134 -86 -179 -104
-18 -8 -31 -16 -28 -18 3 -3 32 9 65 26 85 43 101 53 143 84 28 21 41 25 50
18 7 -6 99 -77 203 -158 166 -128 294 -231 400 -324 17 -14 68 -59 115 -100
221 -192 483 -450 470 -463 -15 -15 -12 -26 9 -26 10 0 28 -10 40 -22 65 -70
77 -97 44 -99 -15 0 -14 -2 4 -11 23 -11 37 -48 24 -61 -5 -5 6 -23 24 -40 18
-18 45 -57 61 -87 16 -30 33 -58 38 -61 5 -4 6 -14 3 -22 -3 -9 1 -18 9 -21
22 -8 17 -25 -11 -38 -14 -6 -24 -16 -22 -22 3 -6 -6 -12 -19 -12 -15 -1 -24
4 -24 12 0 17 -5 17 -29 4 -13 -7 -23 -4 -37 9 -19 17 -20 16 -49 -10 -22 -21
-32 -25 -42 -17 -8 6 -26 11 -41 12 -15 1 -48 16 -74 34 -26 17 -52 32 -59 32
-6 0 -27 16 -45 36 -19 19 -34 31 -34 25 0 -20 -17 -11 -58 30 -23 22 -45 38
-50 35 -4 -2 -24 15 -43 39 -28 36 -61 62 -89 70 -47 13 -85 61 -73 92 5 12 1
14 -14 9 -16 -5 -25 1 -43 31 -13 21 -23 45 -23 53 0 8 -7 20 -15 26 -10 7
-12 16 -6 25 5 8 9 21 9 29 0 8 8 14 18 14 21 -2 21 2 -1 34 -11 15 -25 42
-33 59 -11 27 -18 31 -34 26 -21 -8 -123 -5 -137 3 -4 3 -8 11 -8 19 0 17 40
26 82 18 29 -6 31 -4 20 9 -7 9 -25 18 -40 21 -15 3 -36 14 -47 25 -22 20 -47
19 -39 -2 8 -20 -23 -39 -51 -32 -16 4 -25 13 -25 26 0 11 -5 20 -11 20 -6 0
-9 6 -6 14 3 8 -1 17 -9 20 -8 3 -14 9 -13 13 5 31 -2 44 -21 38 -14 -4 -20
-2 -20 8 0 18 -75 71 -89 62 -6 -3 -11 2 -11 13 0 20 -39 52 -64 52 -7 0 -24
11 -37 25 -13 13 -31 25 -39 25 -8 0 -52 55 -97 123 -46 67 -96 140 -112 163
-25 37 -27 42 -12 53 14 10 13 11 -4 6 -17 -4 -33 11 -79 71 l-57 76 21 23
c19 20 25 21 50 12 16 -6 33 -7 37 -3 4 5 4 10 -2 13 -56 21 -36 43 31 33 42
-7 44 -6 26 10 -10 10 -28 21 -40 24 -12 4 -20 12 -17 17 4 5 -1 9 -9 9 -9 0
-16 4 -16 8 0 16 24 32 48 32 14 0 21 4 17 11 -4 6 -13 8 -19 6 -17 -7 -14 27
4 48 20 24 88 57 113 54 12 -1 34 1 50 6 53 14 74 -30 37 -78 -11 -14 -20 -33
-20 -44 1 -11 6 -6 15 15 8 18 21 35 28 38 9 3 13 13 10 25 -6 21 4 24 42 9
14 -5 24 -6 21 -1 -4 5 0 12 6 15 10 3 8 9 -4 19 -24 19 -23 33 4 51 29 21 31
21 70 -11z m142 -114 c-7 -11 -34 -12 -34 -1 0 14 11 21 26 15 8 -3 11 -9 8
-14z m77 -64 c37 -19 69 -32 71 -30 2 3 29 -4 59 -15 37 -13 48 -15 35 -5 -27
20 -13 30 26 19 37 -11 50 -34 19 -34 -19 0 -20 -2 -9 -20 16 -25 35 -32 56
-21 11 6 24 4 41 -8 14 -9 22 -11 18 -3 -11 17 2 14 43 -9 24 -14 28 -19 13
-15 -35 7 -27 -1 23 -24 55 -24 65 -25 38 -5 -19 14 -19 14 3 15 26 0 35 -21
15 -36 -9 -6 -13 -18 -9 -27 5 -13 12 -15 31 -8 42 16 66 3 66 -35 0 -31 -3
-34 -28 -34 -26 0 -28 -3 -24 -31 3 -21 8 -27 15 -20 7 7 15 7 25 -1 19 -17
85 -21 129 -9 25 7 39 7 41 1 2 -6 12 -10 23 -10 23 0 109 -39 109 -49 0 -4
-9 -17 -20 -29 -22 -23 -45 -28 -55 -12 -3 6 -17 10 -30 10 -20 0 -23 -6 -27
-42 -5 -55 15 -82 38 -49 9 12 20 19 25 16 5 -4 9 3 9 14 0 14 6 21 19 21 11
0 29 12 40 26 l21 26 11 -28 c7 -16 13 -33 14 -39 2 -5 13 -32 25 -59 22 -46
23 -52 11 -110 -7 -33 -14 -72 -16 -85 -1 -13 -7 -26 -12 -30 -19 -13 -11 -57
21 -110 40 -67 50 -97 36 -106 -7 -4 -6 -13 1 -28 9 -16 9 -22 0 -25 -6 -2
-11 -13 -11 -23 0 -11 -4 -17 -10 -14 -6 3 -10 -4 -10 -18 0 -14 -7 -30 -15
-37 -8 -7 -12 -16 -9 -21 17 -28 -19 2 -110 89 -155 152 -252 242 -356 332
-52 46 -116 102 -141 124 -25 23 -54 48 -65 56 -10 8 -75 60 -144 115 -69 55
-129 103 -135 107 -5 5 -28 23 -51 41 -22 18 -73 57 -112 86 -66 49 -86 71
-63 71 16 0 121 112 147 156 29 49 26 49 145 -11z m-21 35 c0 -5 -4 -10 -9
-10 -6 0 -13 5 -16 10 -3 6 1 10 9 10 9 0 16 -4 16 -10z m155 -60 c3 -5 -1
-10 -9 -10 -9 0 -16 5 -16 10 0 6 4 10 9 10 6 0 13 -4 16 -10z m3255 -90 c0
-5 10 -9 22 -7 15 1 26 -6 36 -25 7 -16 19 -28 26 -28 7 0 19 -11 26 -25 7
-14 17 -25 22 -25 13 0 68 -62 68 -77 0 -10 -6 -10 -27 -1 -16 7 -35 18 -44
25 -8 7 -25 13 -36 13 -20 0 -47 26 -72 70 -8 14 -23 40 -34 58 -17 28 -17 32
-3 32 9 0 16 -4 16 -10z m-4166 -21 c36 -10 38 -12 32 -41 -3 -17 -14 -37 -24
-44 -16 -12 -16 -12 3 -11 11 1 19 -2 18 -8 -4 -15 -45 -130 -47 -132 -4 -5
-168 -34 -171 -31 -2 2 -6 23 -10 48 -4 24 -9 49 -12 54 -4 5 -10 23 -14 40
l-8 31 4 -30 c2 -16 7 -43 11 -59 5 -22 3 -32 -12 -44 -18 -13 -18 -14 4 -7
17 5 22 2 22 -13 0 -21 -25 -36 -42 -25 -7 3 -8 1 -4 -5 4 -7 17 -9 30 -6 22
5 24 1 45 -93 47 -213 50 -235 34 -240 -7 -3 -13 2 -13 11 0 11 -8 14 -37 9
-21 -3 -45 -9 -53 -13 -20 -10 -111 -3 -124 10 -19 19 -14 41 14 59 21 12 26
21 19 31 -24 39 10 61 43 28 17 -17 20 -18 15 -4 -4 10 -7 22 -7 27 0 5 -3 8
-7 8 -26 -4 -42 4 -46 24 l-4 22 -8 -22 c-6 -19 -15 -23 -45 -23 -31 0 -43 6
-58 28 -34 49 -34 52 -10 61 18 8 19 10 6 12 -10 1 -22 3 -28 4 -5 1 -14 3
-18 4 -5 0 -9 14 -10 29 0 15 -2 32 -4 37 -4 14 39 85 51 85 6 0 8 7 5 15 -4
9 -1 15 7 15 23 -1 47 -25 54 -53 4 -15 10 -25 14 -23 12 7 51 -14 51 -28 0
-12 -16 -16 -67 -19 -43 -2 -29 -3 37 -3 58 -1 90 1 73 3 -20 3 -33 10 -33 19
0 9 11 14 33 15 25 1 20 3 -21 11 -46 8 -56 15 -77 49 -14 21 -25 43 -25 49 0
10 48 35 63 32 4 -1 7 4 7 12 0 16 34 31 50 21 5 -3 10 0 10 8 0 8 7 20 15 27
12 10 16 6 24 -22 l11 -33 -5 35 c-4 30 -1 38 22 52 33 20 155 24 217 7z m110
-113 c25 -36 46 -67 46 -69 0 -10 -101 -39 -115 -33 -8 3 -15 14 -15 24 0 34
22 82 37 82 13 0 13 3 -1 25 -18 28 -20 35 -7 35 5 0 30 -29 55 -64z m-2710
-78 c13 -25 23 -26 124 -12 36 4 52 3 52 -5 0 -6 9 -11 20 -11 40 0 18 -18
-96 -75 -64 -32 -130 -68 -147 -79 -36 -24 -127 -76 -134 -76 -2 0 -1 5 2 10
3 6 1 10 -5 10 -7 0 -10 -5 -8 -12 5 -13 -36 -44 -95 -74 -43 -22 -369 -236
-476 -312 -17 -12 -22 -6 -57 64 l-39 76 24 19 c13 11 31 17 40 14 13 -4 16 2
15 28 -1 21 8 42 24 62 27 32 37 36 97 40 22 2 48 6 57 10 28 11 63 2 62 -18
-2 -17 6 -21 39 -17 12 1 17 -4 15 -16 -5 -32 30 -27 65 7 19 20 40 32 52 30
l20 -2 -20 14 c-11 8 -29 16 -40 18 -13 3 -21 13 -22 29 -1 14 -5 40 -9 58 -5
25 -2 38 12 52 28 28 38 42 52 73 7 16 16 27 20 25 4 -2 25 -12 47 -21 73 -32
85 -40 85 -58 0 -9 -9 -19 -19 -22 -14 -3 -18 -11 -14 -26 3 -12 10 -24 15
-27 13 -8 68 52 68 74 0 11 10 27 21 38 12 10 34 44 48 75 15 30 32 54 39 51
6 -2 19 1 29 7 20 11 22 10 37 -21z m2833 -95 c32 -49 61 -92 66 -98 42 -55
84 -126 77 -130 -5 -3 -11 -1 -15 4 -4 7 -15 7 -30 1 -14 -5 -25 -7 -25 -4 0
2 -10 -4 -22 -16 -12 -11 -28 -20 -35 -20 -7 0 -13 -5 -13 -11 0 -19 -82 -6
-94 16 -14 25 -28 35 -38 28 -14 -8 -37 17 -31 33 3 8 11 14 18 14 8 0 16 4
19 8 3 5 0 9 -7 9 -7 0 -34 8 -60 18 -36 13 -47 23 -47 39 0 25 71 106 93 106
13 0 14 6 6 32 -10 36 -11 34 21 47 48 19 58 13 117 -76z m-2567 42 c0 -9 14
-17 39 -21 36 -6 40 -9 39 -36 -1 -16 -5 -31 -9 -34 -5 -2 1 -14 11 -24 22
-22 26 -40 9 -40 -5 0 -7 -4 -4 -10 3 -5 0 -10 -7 -10 -7 0 -1 -10 14 -23 15
-13 29 -38 33 -60 4 -20 13 -41 21 -48 8 -6 14 -19 14 -28 0 -9 14 -24 30 -33
18 -10 30 -25 30 -38 0 -29 1 -33 11 -53 8 -14 -9 -35 -98 -120 -203 -193
-423 -418 -578 -590 -74 -83 -79 -86 -97 -70 -17 16 -25 43 -11 43 3 0 15 -7
25 -17 10 -9 20 -14 23 -12 2 3 -27 29 -65 59 -55 44 -69 61 -69 83 -1 15 -6
27 -11 27 -7 0 -9 19 -7 50 4 42 2 50 -14 55 -11 4 -19 11 -19 16 0 6 -5 7
-10 4 -6 -4 -8 -11 -5 -16 4 -5 -2 -12 -12 -16 -10 -4 -21 -11 -26 -17 -4 -7
-28 11 -62 47 l-56 58 31 10 c29 11 36 20 24 31 -3 3 -26 -1 -52 -9 -26 -8
-66 -14 -90 -14 -29 1 -42 -3 -41 -11 5 -43 -18 -56 -96 -58 -19 0 -100 10
-112 14 -6 3 -13 0 -15 -6 -3 -8 -21 -8 -63 0 -44 7 -62 7 -67 -1 -5 -9 -15
-9 -38 0 -17 7 -38 9 -46 6 -24 -9 -15 14 14 36 15 12 32 24 37 28 6 5 42 9
80 9 56 1 79 7 115 28 25 14 54 26 65 27 19 0 18 1 -2 11 -13 6 -23 18 -24 27
0 10 -2 12 -6 4 -6 -17 -23 -16 -23 0 0 30 32 76 70 101 41 27 60 32 60 17 0
-13 142 -222 147 -217 3 3 -16 36 -43 73 -80 112 -109 163 -97 172 148 105
473 313 618 396 44 25 107 61 140 81 33 19 92 50 130 69 39 18 79 40 90 49 25
20 55 20 55 1z m2320 -14 c0 -4 -13 -18 -30 -31 -22 -17 -27 -26 -20 -36 8 -8
8 -14 -1 -19 -7 -5 -8 -10 -1 -14 10 -6 15 -31 13 -63 0 -10 -12 -20 -27 -24
-17 -4 -23 -11 -20 -21 3 -8 1 -23 -4 -33 -8 -15 -6 -21 10 -30 12 -7 20 -21
20 -37 0 -14 -3 -23 -7 -20 -3 4 -12 -1 -19 -11 -15 -20 -16 -18 -33 68 -6 30
-20 97 -31 149 -12 51 -19 95 -16 98 2 3 37 11 78 18 93 17 88 16 88 6z m4677
-169 c180 -238 197 -263 176 -255 -16 6 -16 5 -4 -10 7 -9 18 -14 24 -10 5 3
7 2 4 -4 -3 -5 14 -35 39 -67 201 -256 517 -858 591 -1126 51 -187 65 -254 88
-424 26 -194 32 -297 16 -280 -5 5 -26 43 -47 84 -21 41 -53 99 -71 128 -18
29 -33 55 -33 58 0 8 -131 217 -140 224 -3 3 -22 28 -40 55 -97 143 -279 366
-464 570 -39 42 -48 60 -62 125 -9 41 -23 103 -31 138 -8 35 -13 75 -10 90 3
14 1 35 -3 46 -18 47 -23 61 -22 68 4 18 -22 116 -44 161 -16 35 -20 55 -13
63 7 8 7 14 -1 19 -5 3 -10 11 -10 17 0 16 49 -31 63 -62 7 -14 20 -24 29 -22
18 3 65 -52 98 -115 23 -45 42 -58 33 -23 -3 11 0 20 6 20 15 0 14 27 -4 75
-8 22 -14 53 -15 69 0 29 0 29 20 11 20 -18 20 -18 4 20 -9 22 -17 60 -18 85
-2 29 -7 44 -15 42 -7 -1 -10 2 -7 7 4 5 -33 52 -82 104 -83 90 -162 200 -162
227 0 7 -10 26 -22 43 -14 21 -16 27 -6 19 9 -8 70 -84 135 -170z m-314 124
c9 -7 17 -17 17 -23 0 -5 20 -29 45 -53 25 -24 45 -49 45 -55 0 -6 25 -35 55
-65 47 -47 55 -59 49 -80 -4 -14 -7 -32 -8 -40 -3 -29 -21 -22 -42 16 -12 21
-19 42 -17 46 2 4 -10 35 -26 68 -33 66 -84 124 -118 134 -13 4 -23 10 -23 14
0 4 -3 17 -6 30 -7 25 3 28 29 8z m-1377 -31 c28 -38 40 -36 46 5 1 14 9 25
16 25 6 0 41 -26 76 -57 36 -32 66 -53 68 -47 2 6 15 10 28 9 14 0 54 -2 90
-3 36 -1 71 -6 79 -11 8 -5 29 -10 47 -12 25 -2 33 2 37 17 8 30 34 22 78 -23
23 -24 47 -42 54 -40 13 2 40 -30 63 -74 10 -18 -3 -14 -73 23 -46 25 -92 53
-103 63 -18 17 -62 36 -62 27 0 -5 85 -57 172 -106 59 -33 63 -39 73 -105 3
-21 8 -42 10 -46 3 -5 1 -11 -5 -15 -15 -9 -12 -19 10 -45 15 -17 17 -27 9
-42 -8 -14 -7 -25 4 -41 14 -23 12 -47 -4 -47 -5 0 -9 7 -9 15 0 21 -48 95
-61 95 -5 0 -8 4 -4 9 3 5 0 13 -6 16 -6 4 -8 19 -5 34 l6 26 -20 -24 c-11
-13 -20 -29 -20 -37 0 -30 -30 -12 -48 29 -10 23 -26 48 -35 56 -15 12 -17 11
-17 -5 -1 -28 -50 34 -50 63 0 27 -45 63 -79 63 -15 0 -33 6 -40 13 -10 10
-12 9 -9 -3 2 -8 8 -18 13 -22 6 -5 5 -8 -3 -8 -7 0 -11 -4 -7 -9 3 -5 0 -13
-6 -16 -6 -4 -25 7 -43 24 -18 17 -38 31 -45 31 -8 0 -2 -9 13 -21 14 -11 24
-25 21 -30 -5 -8 12 -14 60 -21 11 -2 25 -13 31 -26 16 -33 45 -62 62 -62 8 0
39 -19 69 -41 41 -32 53 -48 53 -69 0 -15 7 -47 15 -70 18 -52 19 -106 3 -112
-24 -9 -78 21 -78 42 0 12 -6 28 -12 36 -37 43 -40 45 -54 33 -12 -9 -19 -7
-38 10 -13 12 -32 24 -42 25 -16 3 -19 11 -16 51 3 39 1 47 -12 42 -10 -4 -22
5 -34 26 -24 40 -36 87 -22 87 5 0 10 8 10 17 0 20 -38 63 -56 63 -6 0 -17 7
-25 16 -7 9 -21 13 -32 10 -13 -3 -26 3 -39 20 -11 13 -27 24 -37 24 -10 0
-29 12 -42 28 -14 15 -36 36 -50 47 -21 17 -24 26 -21 63 2 23 8 42 13 42 4 0
20 -16 35 -35z m-3606 -5 c30 -31 32 -56 9 -115 -7 -19 -8 -19 -8 1 -1 23 -19
34 -56 34 -28 0 -40 26 -18 39 15 8 15 10 -1 26 -13 13 -14 20 -5 31 18 22 47
16 79 -16z m2733 16 c5 -13 36 -14 75 -2 11 4 23 2 27 -4 3 -6 10 -8 15 -5 4
3 23 -13 41 -36 30 -38 49 -91 52 -151 1 -14 5 -30 10 -34 24 -25 -7 -71 -60
-88 -12 -4 -25 -16 -28 -27 -4 -10 -15 -19 -27 -19 -13 0 -18 5 -15 14 7 18
-10 31 -45 35 -20 2 -28 -2 -28 -13 0 -9 -6 -16 -14 -16 -10 0 -16 13 -18 37
-4 47 -18 51 -42 10 -13 -23 -20 -28 -24 -17 -3 8 -8 17 -12 20 -16 11 -48 78
-42 87 15 22 59 23 86 2 30 -24 35 -8 6 21 -23 23 -27 38 -5 20 8 -6 29 -20
47 -29 18 -10 68 -39 111 -65 43 -25 76 -42 73 -37 -4 5 -36 27 -72 48 -36 21
-83 49 -105 62 -48 28 -66 65 -44 88 8 8 13 18 10 23 -3 5 1 10 7 12 8 3 4 9
-10 17 -28 15 -29 31 -1 31 15 0 19 5 15 15 -3 8 -1 15 3 15 5 0 11 -6 14 -14z
m-2689 -81 c-4 -8 -8 -15 -10 -15 -2 0 -4 7 -4 15 0 8 4 15 10 15 5 0 7 -7 4
-15z m-396 -8 c18 -14 15 -27 -9 -27 -11 0 -17 -5 -14 -10 8 -12 -18 -40 -37
-40 -8 0 -19 -5 -26 -12 -9 -9 -13 -7 -18 6 -6 16 -8 16 -24 1 -31 -28 -31 1
1 48 28 43 33 46 72 45 23 -1 48 -6 55 -11z m-156 -63 c-34 -52 -37 -55 -46
-35 -5 13 -15 20 -23 16 -10 -3 -13 2 -11 17 2 14 11 24 23 26 11 2 29 7 40
12 11 5 27 11 35 13 8 3 16 6 17 6 1 1 -15 -24 -35 -55z m550 14 c-15 -15 -26
-4 -18 18 5 13 9 15 18 6 9 -9 9 -15 0 -24z m-402 -58 c0 -11 5 -19 12 -17 6
1 16 -14 21 -33 6 -19 11 -36 11 -36 1 -1 12 -5 26 -9 22 -7 23 -6 12 8 -11
13 -10 17 4 25 11 6 13 11 5 16 -19 12 -12 30 16 44 40 18 41 16 37 -34 -4
-41 -3 -45 14 -40 12 4 25 0 32 -10 12 -13 11 -20 -2 -42 -22 -37 -54 -52 -88
-42 -16 5 -46 4 -67 -1 -51 -12 -113 -11 -114 1 -5 29 -2 35 21 41 24 7 23 7
-6 8 -18 1 -42 11 -58 26 l-27 25 38 36 c59 55 113 72 113 34z m522 -41 c15
-10 34 -16 42 -13 9 3 20 -3 28 -15 7 -12 18 -21 25 -21 7 0 13 -4 13 -10 0
-5 -5 -10 -12 -10 -7 0 -4 -9 8 -21 26 -26 80 -33 116 -15 15 8 46 17 68 21
35 6 44 4 60 -15 10 -12 22 -21 26 -20 5 1 10 -3 12 -9 2 -6 -2 -11 -8 -11 -8
0 -11 -11 -8 -29 3 -24 0 -30 -26 -39 -22 -9 -33 -9 -43 0 -10 8 -17 8 -21 1
-9 -13 -140 -24 -148 -12 -3 5 -15 7 -27 4 -42 -10 -80 9 -90 44 -5 20 -4 37
2 45 7 9 7 22 -1 42 -9 26 -15 29 -45 26 -28 -4 -35 -1 -40 17 -3 11 -9 21
-14 21 -14 0 -11 38 4 43 17 7 48 -2 79 -24z m-114 -67 c2 -42 -1 -62 -9 -62
-6 0 -9 -6 -6 -14 7 -18 -10 -25 -47 -21 -40 5 -54 21 -38 46 12 19 11 20 -23
13 -40 -7 -44 2 -14 34 11 12 17 26 14 31 -3 5 -1 12 5 16 13 8 92 23 105 21
6 -2 11 -30 13 -64z m-679 13 c13 -12 11 -21 -13 -66 -16 -28 -51 -85 -77
-125 -42 -63 -53 -74 -78 -74 -16 0 -42 -3 -58 -6 -28 -6 -29 -5 -25 30 3 23
-2 45 -13 62 -16 25 -16 26 6 42 13 9 31 24 41 34 10 10 23 18 28 18 6 0 10 4
10 9 0 5 13 14 29 21 22 9 31 21 36 47 l6 35 47 -7 c26 -3 53 -13 61 -20z
m5676 -32 c10 -14 21 -39 26 -55 7 -27 6 -28 -14 -22 -27 8 -40 19 -43 39 -1
8 -12 28 -23 44 -12 16 -21 32 -21 35 0 14 61 -19 75 -41z m-5615 -13 c12 0
21 -13 29 -42 18 -62 18 -62 -15 -70 -23 -6 -20 -6 13 -4 47 4 60 -10 38 -41
-8 -10 -14 -22 -14 -28 0 -5 4 -2 10 8 14 23 31 21 57 -6 14 -15 18 -27 12
-33 -6 -6 -3 -10 9 -10 14 0 18 7 16 23 -1 13 3 23 10 23 25 0 40 -33 38 -82
-1 -26 2 -48 7 -48 6 0 10 15 11 33 0 17 6 50 13 72 14 45 36 49 67 12 15 -18
18 -32 13 -73 -4 -32 -1 -60 6 -74 9 -16 9 -25 1 -33 -6 -6 -11 -21 -11 -33 0
-23 22 -48 33 -37 4 3 7 -1 7 -10 0 -9 12 -22 28 -29 21 -11 27 -20 25 -42 -3
-37 -7 -40 -33 -26 -12 6 -25 8 -28 4 -4 -4 -1 -9 6 -11 6 -3 12 -18 12 -34 0
-16 -6 -29 -12 -30 -7 0 -25 -3 -39 -5 -29 -5 -99 21 -99 36 0 6 -7 10 -15 10
-8 0 -15 7 -15 17 0 15 -1 15 -18 0 -10 -10 -28 -17 -40 -17 -12 0 -32 -5 -46
-12 -30 -13 -166 5 -178 25 -4 7 -5 27 -2 45 5 27 3 32 -14 32 -36 0 -72 38
-72 77 l0 36 63 -5 c35 -3 76 -12 93 -21 17 -9 36 -12 43 -8 19 12 -35 43 -86
49 -24 2 -43 9 -43 13 0 5 -11 9 -25 9 -15 0 -25 6 -25 14 0 8 -3 21 -6 30 -5
13 1 16 27 16 l33 0 -22 20 c-12 12 -22 26 -22 32 0 17 31 48 47 48 8 0 12 4
9 9 -8 12 13 27 54 40 l35 11 -40 -6 c-22 -3 -47 -14 -57 -25 -27 -31 -41 -23
-22 14 9 17 20 34 24 37 3 3 20 29 36 58 18 32 34 50 42 47 8 -3 22 -5 32 -5z
m5083 -66 c82 -57 382 -279 403 -299 6 -5 57 -48 112 -95 l102 -85 0 -60 c0
-111 -45 -435 -60 -435 -4 0 -20 18 -35 41 -16 22 -41 47 -56 54 -15 8 -37 27
-49 42 -12 16 -25 29 -28 29 -49 10 -54 18 -82 110 -11 36 -10 45 5 68 10 15
15 37 13 51 -3 14 -2 25 1 25 11 0 33 60 27 75 -3 8 0 39 7 70 l11 55 -39 40
c-22 22 -65 59 -97 82 -32 24 -58 46 -58 49 0 13 -32 19 -45 9 -8 -6 -21 -6
-41 2 -26 9 -34 8 -52 -8 -12 -10 -22 -24 -22 -31 0 -20 -34 -15 -64 8 -20 15
-26 29 -25 52 1 18 -2 40 -6 50 -5 13 -3 16 8 12 11 -5 14 1 11 27 -4 29 -23
50 -49 54 -5 0 -16 2 -22 2 -18 3 -16 42 2 42 8 0 15 7 15 16 0 22 15 15 113
-52z m638 -33 c21 -48 15 -51 -28 -13 -20 17 -35 43 -41 71 l-11 44 31 -30
c16 -17 38 -49 49 -72z m-7961 17 c0 -14 -18 -9 -24 8 -11 28 -6 39 9 20 8
-11 15 -23 15 -28z m3370 16 c0 -8 -4 -12 -10 -9 -5 3 -10 10 -10 16 0 5 5 9
10 9 6 0 10 -7 10 -16z m-1999 -21 c4 -70 9 -88 25 -100 16 -12 19 -11 26 7 6
16 15 19 51 18 40 -2 45 -5 42 -25 -2 -19 0 -21 11 -12 8 6 23 9 34 6 11 -3
37 -1 57 5 26 7 38 7 43 -2 4 -7 13 -9 19 -6 6 4 11 2 11 -4 0 -6 -10 -14 -22
-19 -21 -8 -21 -8 5 -13 15 -3 30 -1 33 4 3 4 9 6 14 3 4 -3 10 5 13 16 4 13
10 18 18 14 11 -8 8 -71 -7 -108 -4 -12 -1 -17 10 -17 9 0 19 7 23 16 5 14 52
39 59 31 6 -6 -20 -67 -29 -67 -4 0 -5 -5 -2 -10 4 -7 17 -4 35 7 27 15 30 15
54 0 43 -29 42 -57 -3 -133 -22 -38 -51 -88 -63 -112 l-23 -43 -97 3 c-53 2
-93 -1 -89 -5 5 -5 21 -10 35 -11 15 -2 38 -14 52 -27 21 -20 22 -24 9 -32
-10 -5 -21 -4 -29 2 -10 9 -15 8 -20 -4 -3 -8 -15 -15 -26 -15 -11 0 -20 -4
-20 -10 0 -5 -8 -10 -17 -10 -15 0 -13 -4 7 -20 25 -19 25 -19 46 1 23 21 78
27 72 7 -3 -7 -15 -19 -29 -25 -19 -10 -20 -13 -6 -13 10 0 17 -3 15 -7 -11
-26 -195 -378 -221 -424 l-32 -56 -70 30 c-38 16 -116 51 -173 78 -57 27 -105
49 -108 49 -11 0 -235 131 -309 181 -139 94 -165 114 -162 126 4 23 148 175
429 456 158 158 293 287 298 287 6 0 10 -8 11 -17z m-1361 -129 c-42 -29 -47
-30 -80 -19 -19 7 -36 19 -38 28 -2 12 1 15 12 11 9 -3 20 3 28 15 7 12 21 21
30 21 10 0 25 11 34 26 l17 25 21 -38 21 -38 -45 -31z m2972 67 c13 -5 35 -12
50 -15 l27 -6 -33 -58 c-28 -49 -36 -57 -59 -54 -20 2 -25 -1 -21 -12 3 -9 -3
-28 -14 -43 l-19 -28 23 -25 c13 -13 24 -37 24 -52 0 -15 6 -31 14 -35 8 -4
15 -10 15 -13 0 -3 3 -13 7 -23 4 -11 0 -25 -11 -37 -20 -22 -11 -48 11 -29
10 8 14 8 14 0 0 -6 9 -11 20 -11 21 0 26 -10 11 -25 -11 -12 -2 -85 10 -85 5
0 9 11 9 24 0 56 31 74 63 38 24 -26 33 -82 17 -92 -11 -7 -9 -16 10 -43 24
-35 50 -39 50 -8 0 10 7 26 15 37 8 10 15 33 15 51 0 17 6 33 13 36 9 3 9 9 0
28 -7 13 -13 35 -15 49 -4 30 -33 54 -68 56 -14 1 -28 2 -32 3 -13 2 -46 42
-51 63 -5 18 -2 19 36 13 31 -4 38 -3 27 4 -8 6 -24 11 -35 11 -34 1 -44 14
-49 65 -5 70 40 168 86 184 36 13 78 14 78 4 0 -5 -11 -30 -25 -57 -18 -36
-22 -53 -15 -67 6 -10 10 -29 10 -43 0 -14 5 -26 11 -26 5 0 7 4 4 10 -3 5 -2
18 4 27 6 13 5 24 -4 36 -41 56 84 154 134 105 10 -11 11 -9 5 6 -5 14 -3 17
7 14 14 -5 33 -111 24 -136 -3 -7 -1 -11 4 -8 8 5 31 -58 31 -87 0 -9 4 -18 9
-21 10 -6 7 10 -15 88 l-14 48 24 -6 c17 -4 25 -1 30 12 3 9 9 23 12 30 5 10
-2 10 -25 -2 -31 -16 -31 -16 -41 9 -18 47 -13 70 16 73 29 2 59 -11 92 -41
26 -24 29 -39 5 -30 -11 4 -14 3 -9 -5 4 -7 18 -12 30 -12 13 0 29 -7 36 -15
7 -8 19 -15 26 -15 8 0 14 -7 14 -15 0 -8 5 -15 11 -15 7 0 18 -8 25 -17 13
-17 13 -17 14 1 0 15 5 17 28 11 43 -10 57 -29 37 -49 -15 -14 -15 -16 -1 -16
9 0 16 7 16 15 0 20 16 19 24 -2 5 -13 9 -14 15 -5 8 13 65 -3 89 -25 7 -7 17
-13 22 -13 11 0 40 -29 40 -41 0 -5 -7 -9 -15 -9 -8 0 -15 -5 -15 -11 0 -6 9
-8 20 -4 12 4 28 1 36 -5 12 -11 12 -14 -3 -26 -10 -7 -18 -23 -18 -36 -1 -21
3 -24 32 -21 18 1 33 -2 33 -8 0 -14 43 -29 55 -18 5 5 15 9 23 9 22 0 82 -51
75 -64 -3 -6 3 -2 15 8 20 17 27 15 23 -6 -2 -12 27 -10 34 2 4 6 17 4 36 -5
34 -18 42 -65 12 -65 -17 -1 -17 -1 -1 -10 18 -11 16 -54 -5 -79 -9 -11 -9
-15 1 -18 6 -3 12 -16 12 -30 0 -20 -4 -24 -17 -18 -10 4 -26 7 -35 7 -10 0
-34 15 -54 33 -20 19 -40 33 -44 30 -4 -3 -11 2 -14 11 -4 9 -9 14 -13 10 -3
-3 -15 2 -25 11 -18 16 -18 16 -12 -2 6 -15 4 -17 -10 -12 -10 4 -15 3 -11 -3
3 -6 13 -10 21 -10 16 0 19 -16 4 -25 -15 -9 -12 -25 4 -19 8 3 19 -3 26 -16
12 -22 55 -45 78 -41 7 1 15 -5 18 -13 3 -9 10 -13 15 -10 5 3 14 -7 19 -21 7
-18 15 -25 26 -21 9 4 14 1 12 -8 -2 -7 8 -23 22 -35 18 -16 21 -24 12 -28
-11 -4 -10 -8 2 -22 24 -27 10 -75 -17 -53 -11 9 -54 22 -129 37 -9 2 -26 8
-37 14 -32 17 -36 13 -8 -9 14 -11 35 -20 46 -20 12 0 21 -4 21 -9 0 -5 9 -13
21 -16 34 -11 88 -49 89 -62 0 -25 -1 -28 -18 -26 -9 1 -48 4 -86 8 -38 3 -75
10 -82 16 -6 5 -20 11 -30 13 -11 2 -35 6 -55 10 -41 7 -95 46 -65 46 9 0 15
4 12 9 -3 5 -18 9 -33 9 -15 0 -29 3 -30 8 -10 27 -24 37 -52 37 -17 0 -31 4
-31 9 0 4 -8 4 -17 -1 -10 -5 -33 -15 -50 -21 -18 -7 -33 -16 -33 -21 0 -15
-88 4 -91 20 -7 41 -6 60 6 65 8 3 11 13 8 25 -5 18 -1 20 51 17 31 -2 56 0
56 5 0 5 7 9 15 9 8 0 15 5 15 10 0 6 8 10 18 10 13 1 11 5 -10 21 -33 24 -34
36 -8 69 11 14 20 34 20 46 0 11 4 24 10 30 16 16 -49 87 -108 117 -52 26 -56
27 -74 10 -17 -15 -21 -15 -28 -3 -12 18 -8 35 8 36 7 1 15 2 20 3 4 1 -10 11
-31 24 -21 13 -34 27 -30 32 4 4 0 5 -10 2 -14 -5 -20 -2 -24 13 -7 26 -29 26
-36 -1 -10 -38 -40 -18 -53 36 l-13 50 6 -47 c4 -41 3 -48 -12 -48 -14 0 -15
-3 -5 -14 10 -13 7 -15 -16 -13 -39 3 -45 -29 -9 -43 16 -6 25 -16 22 -24 -3
-7 -1 -19 3 -27 5 -8 4 -19 -3 -27 -19 -24 -17 -46 9 -73 20 -21 24 -32 18
-54 -9 -37 -91 -116 -112 -108 -10 4 -13 2 -8 -5 10 -17 -6 -15 -34 5 -27 19
-70 26 -70 12 0 -5 6 -9 14 -9 27 0 27 -19 3 -52 -15 -20 -24 -46 -24 -66 0
-20 -8 -41 -21 -55 -12 -13 -22 -31 -22 -39 0 -14 -36 -30 -75 -32 -19 -2 -55
-46 -55 -68 0 -24 -13 -50 -24 -49 -21 3 -59 -1 -48 -6 17 -7 15 -23 -4 -23
-8 0 -12 -4 -9 -10 3 -5 1 -10 -5 -10 -6 0 -8 -4 -5 -10 3 -5 -3 -10 -14 -10
-14 0 -23 -9 -27 -25 -3 -13 -15 -27 -25 -30 -11 -4 -17 -11 -13 -16 3 -5 -8
-32 -25 -59 -17 -28 -31 -57 -31 -65 0 -19 -49 -20 -189 -4 -95 11 -100 13
-96 33 2 12 7 39 10 61 7 49 13 86 86 505 36 210 37 216 52 201 18 -18 26 -13
33 25 4 23 11 34 20 30 27 -10 19 20 -8 31 -20 9 -28 18 -26 30 2 10 9 17 16
16 6 -2 18 10 27 26 8 17 20 33 26 37 14 8 79 -63 79 -88 0 -10 5 -18 10 -18
6 0 10 -4 10 -9 0 -12 -57 -34 -69 -26 -6 3 -11 1 -11 -4 0 -10 22 -16 43 -12
5 1 6 -6 4 -16 -17 -59 -18 -83 -5 -78 10 4 13 16 10 35 -4 27 -1 30 21 30 17
0 33 10 46 29 26 37 26 40 -1 33 -22 -5 -22 -8 -2 58 5 14 2 20 -10 20 -9 0
-16 5 -16 10 0 6 -7 10 -15 10 -22 0 -34 32 -31 81 4 62 15 91 31 85 9 -3 12
0 9 8 -3 7 1 16 9 19 10 4 13 26 11 93 -2 64 2 93 13 110 20 32 56 41 95 25z
m-212 -13 c0 -4 16 -6 36 -5 45 3 52 -12 21 -45 l-24 -26 22 -19 c24 -20 40
-53 25 -53 -6 0 -10 -11 -10 -25 0 -31 -70 -79 -101 -70 -23 8 -24 27 -3 135
8 45 13 87 11 93 -2 6 -9 -23 -16 -64 -12 -67 -30 -121 -31 -92 0 6 -8 14 -18
17 -22 7 -45 58 -36 80 4 10 13 15 21 12 8 -3 17 -6 19 -6 2 0 4 -7 4 -15 0
-8 7 -15 15 -15 20 0 19 29 -2 52 -15 17 -15 19 6 37 22 19 61 25 61 9z
m-3092 -230 c6 -6 12 -17 12 -25 0 -11 4 -11 20 -3 31 16 24 -3 -10 -28 -36
-27 -45 -27 -72 -2 -12 11 -30 20 -40 20 -24 0 -59 35 -47 47 12 12 119 4 137
-9z m2359 -94 c40 -8 63 -33 66 -70 2 -24 -2 -29 -21 -30 -85 -5 0 -64 97 -67
39 -2 63 -8 75 -20 10 -9 21 -17 26 -17 4 0 12 -17 18 -37 l10 -38 1 42 c1 23
6 43 14 46 8 3 5 11 -11 24 l-22 21 22 14 c37 24 112 32 128 14 7 -9 10 -22 7
-30 -3 -8 1 -17 9 -20 8 -3 14 -13 14 -22 0 -13 6 -15 27 -9 16 4 25 3 20 -1
-4 -4 0 -16 10 -26 11 -13 30 -18 65 -18 42 0 49 -3 44 -17 -2 -10 -14 -72
-26 -138 -12 -66 -28 -154 -35 -195 -7 -41 -19 -106 -25 -145 -10 -63 -36
-215 -46 -272 -6 -29 -34 -30 -191 -3 -65 12 -142 25 -172 30 -30 5 -68 14
-85 19 -17 5 -58 14 -91 21 -33 7 -80 18 -105 25 -25 8 -65 19 -90 26 -65 17
-251 80 -276 93 -21 11 -18 17 90 226 186 359 171 336 203 315 21 -14 25 -14
39 0 8 8 20 15 25 15 5 0 9 4 9 9 0 5 -18 11 -40 15 -22 3 -40 9 -40 11 0 14
33 54 40 50 5 -3 6 3 4 12 -2 10 7 36 20 58 13 22 41 69 62 104 l37 65 31 -37
c19 -22 43 -39 63 -43z m-1717 -70 c0 -3 -4 -3 -8 0 -5 3 -32 6 -60 7 -60 3
-94 27 -68 48 8 7 19 10 24 7 6 -3 12 4 16 17 6 21 9 19 51 -26 25 -26 45 -50
45 -53z m7748 -125 c12 -20 29 -42 37 -49 8 -7 15 -23 15 -37 0 -13 11 -45 24
-71 19 -37 24 -64 24 -117 0 -115 28 -195 67 -195 17 0 21 15 20 77 0 28 3 49
7 47 15 -10 7 61 -11 101 -22 50 -34 95 -24 94 13 -1 185 -197 283 -320 50
-63 103 -130 118 -149 16 -19 46 -62 67 -95 21 -33 41 -62 45 -65 9 -6 130
-197 130 -205 0 -3 11 -22 23 -43 25 -39 95 -166 134 -243 28 -56 29 -100 8
-289 -29 -263 -68 -436 -151 -665 -48 -134 -74 -190 -82 -180 -4 6 -16 17 -26
25 -18 14 -18 13 -12 -8 13 -40 -4 -23 -25 25 -11 26 -24 82 -30 125 -5 42
-16 94 -23 115 -7 21 -17 72 -20 113 -5 47 -19 103 -38 150 -20 48 -30 90 -29
117 0 23 -10 77 -25 119 -20 61 -24 87 -19 129 8 59 -15 213 -44 297 -10 30
-34 69 -53 88 -21 21 -42 57 -53 90 -10 30 -23 62 -30 70 -17 20 -42 109 -56
198 -8 55 -23 95 -59 160 -26 48 -51 97 -55 110 -5 16 -10 20 -18 13 -8 -6
-21 -5 -37 4 -37 21 -40 19 -40 -30 0 -25 -4 -45 -10 -45 -5 0 -10 -10 -10
-22 l-1 -23 -20 25 c-52 65 -69 83 -69 72 0 -26 -79 35 -80 62 0 5 -7 17 -15
26 -13 14 -13 25 1 91 20 96 44 298 44 373 l0 59 49 -44 c26 -24 58 -60 69
-80z m-6286 9 c-6 -6 -15 -8 -19 -4 -4 4 -1 11 7 16 19 12 27 3 12 -12z
m-1049 -236 c184 -128 382 -239 552 -308 33 -14 69 -29 80 -33 11 -5 35 -14
53 -21 17 -7 32 -14 32 -16 0 -4 -30 -68 -159 -341 -50 -106 -91 -196 -91
-200 0 -4 -22 -55 -49 -113 -27 -58 -66 -145 -86 -195 -21 -49 -51 -121 -67
-160 -17 -38 -39 -92 -50 -120 -29 -72 -53 -131 -83 -205 -15 -36 -33 -82 -41
-102 -8 -21 -20 -55 -28 -75 -48 -129 -127 -350 -150 -418 -15 -44 -30 -83
-35 -88 -7 -7 -127 35 -243 87 -70 31 -73 46 -23 112 19 25 36 58 37 72 5 91
21 148 50 181 27 30 78 107 78 118 0 5 18 43 40 86 22 43 40 87 40 97 0 10 4
21 8 24 4 2 9 18 10 35 1 17 7 42 12 57 6 15 8 35 4 46 -3 10 2 30 11 44 10
16 13 33 9 47 -5 12 -7 27 -6 33 1 7 -4 14 -13 18 -8 3 -15 17 -15 31 0 14 -7
28 -15 31 -10 4 -12 11 -6 22 9 15 -23 92 -38 92 -3 0 -5 20 -3 45 3 29 9 45
18 45 7 0 27 -20 44 -45 32 -47 44 -54 53 -31 6 15 -11 36 -29 36 -16 0 -38
64 -24 68 5 2 10 12 10 23 0 22 29 50 63 61 20 7 20 7 -4 5 -14 -2 -31 3 -38
11 -11 11 -10 16 6 27 14 10 18 23 16 59 -2 29 3 50 12 60 9 8 11 17 6 21 -6
3 -14 -3 -20 -12 -14 -25 -21 -13 -22 38 0 44 3 69 16 102 4 10 3 17 -4 17
-16 0 3 42 33 74 25 28 25 56 1 56 -8 0 -17 -4 -20 -10 -9 -15 -32 -12 -32 5
0 8 6 15 12 15 34 0 58 97 35 139 -9 19 7 71 23 71 10 0 8 72 -3 90 -7 11 -10
12 -10 2 0 -8 -6 -12 -12 -9 -7 2 -12 11 -10 21 3 15 -9 20 -45 19 -13 -1 -24
53 -21 104 0 17 -5 46 -12 63 -11 27 -11 33 6 50 11 10 20 19 22 19 2 1 54
-34 115 -77z m2557 -77 c0 -11 5 -15 14 -12 19 7 72 -19 80 -38 3 -8 14 -15
24 -15 20 0 45 -24 55 -53 5 -12 13 -16 25 -13 12 4 26 -1 37 -14 17 -19 17
-21 2 -38 -15 -16 -23 -17 -61 -8 -25 6 -42 14 -40 18 3 4 -4 8 -15 8 -12 0
-21 5 -21 10 0 6 -4 10 -10 10 -5 0 -10 -8 -10 -17 0 -23 -67 -96 -83 -90 -6
2 -13 16 -15 30 -2 15 -4 27 -5 27 -1 0 -17 -4 -34 -9 -43 -12 -54 5 -22 33
21 19 24 30 27 105 2 91 14 120 38 96 8 -7 14 -21 14 -30z m678 -282 c7 -7 20
-13 28 -13 8 0 20 -12 26 -26 10 -22 17 -25 50 -22 26 2 38 0 38 -9 0 -7 5
-13 10 -13 6 0 10 7 10 15 0 8 4 15 9 15 12 0 21 -27 15 -44 -3 -8 0 -24 6
-36 6 -12 10 -23 8 -25 -6 -6 -263 -60 -357 -74 -52 -8 -66 -8 -78 4 -8 8 -12
19 -8 24 3 5 -4 16 -16 24 -17 12 -19 19 -10 35 10 19 6 51 -9 62 -4 3 -12 19
-18 37 -9 27 -8 34 11 51 12 11 31 18 42 16 11 -3 43 -7 71 -9 42 -4 54 -2 68
14 17 19 19 19 54 3 21 -9 43 -23 50 -29z m5084 -233 c149 -416 248 -821 312
-1277 32 -224 32 -254 -1 -103 -13 63 -26 126 -30 140 -9 44 -72 253 -98 330
-45 129 -77 208 -140 345 -29 63 -33 82 -39 200 -4 72 -9 148 -12 170 -13 107
-38 239 -60 324 -25 97 -30 134 -12 91 5 -14 41 -113 80 -220z m-7517 184
c149 -55 380 -119 550 -152 28 -6 75 -15 105 -21 120 -24 294 -50 302 -44 5 3
6 -12 2 -33 -4 -21 -8 -45 -8 -53 -1 -9 -8 -50 -15 -91 -7 -41 -16 -100 -21
-130 -10 -58 -68 -463 -95 -660 -9 -63 -23 -162 -31 -220 -16 -119 -30 -226
-44 -350 -6 -47 -14 -114 -20 -150 -5 -36 -14 -112 -20 -170 -12 -114 -28
-240 -36 -281 -5 -25 -6 -26 -62 -18 -31 5 -93 13 -137 19 -398 54 -941 187
-1286 316 l-96 35 49 142 c27 78 53 153 58 167 4 14 12 36 18 50 5 14 17 43
25 65 9 22 31 81 50 130 20 50 65 167 101 260 37 94 77 195 90 225 14 30 43
100 66 155 59 139 379 835 384 835 1 0 33 -12 71 -26z m2893 -40 c-26 -14 -42
-5 -32 19 5 13 10 14 30 5 l25 -12 -23 -12z m68 -39 c19 -19 38 -35 42 -35 4
0 27 -20 50 -45 23 -25 48 -45 56 -45 16 0 29 -27 20 -41 -3 -5 2 -9 10 -9 9
0 16 -5 16 -11 0 -5 4 -8 9 -5 14 9 26 -16 26 -52 -1 -26 4 -34 22 -38 12 -3
27 -12 34 -20 6 -8 21 -11 33 -8 17 4 27 -5 54 -49 17 -29 32 -56 32 -60 0 -4
18 -44 39 -89 59 -126 111 -246 111 -257 0 -6 10 -31 22 -56 22 -44 22 -45 2
-60 -10 -8 -26 -15 -35 -15 -9 0 -22 -6 -28 -14 -6 -7 -22 -11 -35 -9 -13 3
-36 -2 -52 -10 -16 -8 -47 -18 -69 -21 -121 -22 -195 -74 -195 -137 0 -20 -6
-32 -19 -37 -28 -10 -65 -69 -90 -143 -13 -35 -31 -83 -42 -107 -11 -24 -18
-46 -15 -49 5 -5 19 24 74 149 21 47 129 151 191 183 62 31 142 7 141 -42 -1
-31 -56 -86 -79 -80 -12 3 -26 -2 -33 -10 -11 -14 -10 -15 8 -9 15 5 24 2 28
-10 6 -16 8 -15 21 3 12 16 37 23 51 14 1 -1 -2 -19 -6 -41 -6 -34 -5 -40 9
-38 9 2 15 -2 14 -9 -2 -7 9 -24 23 -39 19 -19 34 -25 54 -22 20 3 26 1 23 -9
-4 -10 9 -13 50 -13 46 0 59 4 71 22 9 12 16 17 16 10 0 -6 6 -12 13 -12 8 0
12 20 13 63 1 34 7 75 13 91 11 28 12 28 26 10 8 -10 15 -29 15 -41 0 -13 6
-23 13 -23 8 0 19 -12 25 -26 15 -31 0 -64 -28 -64 -25 0 -34 -17 -15 -27 13
-8 3 -21 -49 -71 -35 -34 -69 -62 -75 -62 -6 0 -11 -7 -11 -15 0 -13 -12 -18
-45 -18 -5 0 -11 -16 -12 -35 -1 -20 -11 -48 -22 -63 -12 -16 -21 -32 -21 -38
0 -5 -15 -5 -36 2 -69 21 -71 95 -4 162 37 37 56 71 27 46 -17 -14 -27 -5 -20
17 3 10 -6 4 -21 -13 -14 -16 -25 -33 -26 -37 0 -5 -5 -8 -11 -8 -6 0 -23 -9
-39 -20 -15 -11 -30 -16 -34 -12 -4 4 -5 -5 -1 -19 6 -23 2 -30 -24 -45 -17
-10 -31 -24 -31 -32 0 -7 -5 -10 -10 -7 -6 4 -17 1 -25 -5 -8 -6 -19 -9 -25
-5 -5 3 -10 -2 -10 -14 0 -28 -11 -52 -21 -45 -5 3 -9 0 -9 -6 0 -6 -4 -8 -10
-5 -5 3 -10 -1 -10 -9 0 -9 -7 -16 -16 -16 -8 0 -13 -4 -10 -9 3 -4 -1 -17 -9
-27 -17 -23 -20 -84 -4 -84 8 0 7 -6 -2 -16 -12 -15 -11 -19 9 -32 12 -8 22
-21 22 -28 0 -8 9 -14 20 -14 18 0 19 3 10 20 -6 11 -7 20 -2 20 5 0 14 -11
20 -24 10 -23 8 -26 -20 -40 -17 -9 -34 -14 -38 -11 -4 3 -11 -3 -15 -13 -6
-16 -7 -15 -18 3 -11 19 -11 19 -17 -5 -4 -19 -17 -29 -58 -42 -61 -20 -80
-32 -118 -77 -19 -23 -24 -36 -16 -39 6 -2 12 -14 12 -26 0 -19 -8 -23 -77
-34 -96 -16 -172 -27 -283 -41 -47 -6 -94 -13 -106 -16 -19 -4 -21 2 -32 84
-19 139 -17 157 21 192 l32 31 -32 -21 c-43 -29 -55 -26 -18 5 l30 25 -27 -10
c-33 -12 -30 -24 -52 179 -9 80 -21 177 -26 215 -12 87 -35 256 -55 400 -16
118 -16 128 3 163 12 20 14 21 29 7 20 -21 28 -12 11 14 -10 16 -10 23 0 33
14 14 16 58 3 58 -5 0 -15 17 -21 38 -6 20 -14 44 -17 52 -8 21 -10 28 -12 44
0 8 -9 22 -18 32 -45 44 -42 56 17 100 63 47 87 78 98 131 9 42 -7 119 -32
158 -21 32 -68 75 -82 75 -6 0 -19 9 -29 20 -16 17 -16 23 -4 52 7 18 13 42
13 53 0 31 21 45 83 55 66 11 127 23 260 52 78 16 95 17 106 6 8 -7 12 -19 9
-26 -2 -6 4 -12 13 -12 10 0 15 -7 13 -17 -2 -13 5 -19 27 -21 17 -2 35 -9 40
-15 6 -7 20 -17 31 -24 19 -10 25 -8 44 14 12 13 19 32 16 40 -4 11 -2 13 9
10 12 -5 14 4 11 58 -3 56 -1 64 18 73 34 17 45 14 82 -23z m-1781 -164 l80
-6 1 -45 c1 -68 2 -70 32 -70 15 0 32 -4 38 -8 15 -9 57 -159 49 -172 -9 -14
24 -12 60 4 27 11 35 10 74 -11 24 -13 52 -23 62 -23 10 0 22 -6 26 -14 4 -7
18 -18 30 -25 12 -6 24 -20 28 -30 4 -14 24 -25 63 -36 31 -9 71 -27 87 -39
26 -19 41 -22 107 -20 94 4 110 -7 107 -70 -2 -23 1 -48 5 -55 9 -13 17 -52
19 -91 1 -14 12 -36 24 -50 13 -14 23 -30 23 -36 0 -7 13 -17 29 -22 50 -18
87 -87 100 -188 7 -49 19 -138 27 -199 26 -191 33 -248 39 -310 l5 -60 -32 36
c-26 29 -43 38 -83 43 -85 13 -196 16 -190 6 3 -5 13 -6 21 -3 10 4 17 -2 20
-15 3 -11 23 -27 44 -37 37 -16 39 -20 65 -117 21 -81 24 -105 16 -130 -11
-31 -11 -31 10 -13 16 15 19 26 14 56 -5 27 -1 48 14 77 l21 41 -26 30 c-21
25 -23 31 -9 31 9 0 28 -12 42 -27 14 -16 29 -27 34 -25 5 1 9 -2 9 -7 0 -5
10 -11 22 -13 21 -3 24 -11 33 -100 7 -66 7 -100 0 -103 -6 -3 -5 -7 3 -11 25
-12 11 -31 -30 -44 -24 -6 -70 -33 -103 -58 l-60 -45 40 7 c22 4 49 16 60 26
17 15 97 60 108 60 2 0 7 -30 10 -67 3 -38 9 -89 13 -115 l6 -46 -43 -6 c-254
-31 -754 -49 -1029 -37 -124 5 -238 9 -255 10 -34 1 -247 19 -312 27 -40 5
-43 7 -43 35 0 17 4 60 9 97 6 37 17 128 26 202 9 74 23 187 31 250 8 63 24
185 35 270 11 85 26 207 34 270 8 63 22 158 29 210 8 52 20 133 26 180 12 93
33 236 55 370 7 47 19 119 25 160 21 135 12 123 83 115 34 -5 98 -11 142 -14z
m2246 -195 c9 -4 21 -1 28 8 10 12 16 12 41 -1 33 -16 38 -30 15 -39 -24 -9
-17 -22 8 -17 14 3 31 -2 40 -12 12 -11 22 -13 34 -7 10 5 24 7 32 4 26 -9 59
-44 65 -68 4 -13 12 -24 19 -24 8 0 7 -4 -3 -10 -13 -8 -13 -10 2 -10 28 0 32
-52 8 -99 -12 -22 -28 -41 -36 -41 -18 0 -74 -77 -74 -101 0 -10 -4 -20 -9
-24 -5 -3 -13 -19 -16 -37 -7 -30 -8 -30 -37 38 -16 38 -42 98 -57 134 -66
151 -63 141 -46 160 22 24 19 36 -5 15 -19 -17 -20 -16 -55 60 -19 43 -35 81
-35 85 0 8 49 -1 81 -14z m353 -271 c3 -9 4 -54 1 -100 -2 -50 0 -85 6 -85 5
0 9 9 9 19 0 15 7 19 30 19 23 -1 28 -4 19 -14 -6 -7 -8 -18 -5 -23 9 -14 75
-8 85 7 4 7 25 15 45 19 38 6 38 6 34 -26 -4 -39 18 -57 43 -35 26 23 31 2 10
-39 -10 -20 -15 -34 -10 -31 5 3 9 -4 9 -15 0 -37 17 -22 26 22 l8 42 4 -35
c4 -42 22 -66 22 -30 0 21 2 22 15 10 18 -19 34 -137 17 -126 -7 4 -12 1 -12
-6 -1 -8 -8 -4 -19 9 l-19 22 -6 -22 c-5 -18 -8 -20 -16 -7 -5 8 -10 29 -10
46 0 17 -7 37 -15 44 -13 11 -15 8 -15 -18 0 -17 -4 -34 -10 -37 -5 -3 -10
-18 -10 -33 0 -31 -29 -55 -51 -41 -11 6 -11 11 -1 21 20 20 14 31 -13 26 -14
-3 -28 -1 -31 3 -3 5 0 9 7 9 7 0 9 3 6 7 -4 3 -17 -3 -30 -15 -12 -11 -35
-24 -52 -28 -16 -3 -51 -15 -77 -26 -39 -17 -49 -18 -61 -7 -12 12 -12 19 -1
53 18 49 17 51 -1 36 -21 -17 -29 -7 -16 18 6 12 11 30 11 41 0 12 5 21 11 21
5 0 7 5 3 12 -4 7 -9 44 -11 83 -1 38 -4 85 -6 103 -2 18 0 35 5 38 4 3 8 13
8 23 0 18 35 61 49 61 5 0 12 -7 15 -15z m3766 -35 c0 -4 15 -41 34 -82 18
-40 39 -89 46 -108 7 -19 19 -48 25 -65 61 -146 146 -448 185 -650 46 -245 51
-377 21 -627 -12 -98 -21 -193 -21 -210 0 -38 -29 -80 -56 -84 -37 -5 -52 -10
-66 -22 -21 -17 -50 7 -54 43 -4 36 -22 54 -60 58 -16 2 -36 7 -44 12 -8 5
-27 8 -41 7 -22 -3 -27 2 -37 36 -7 22 -12 47 -12 56 0 24 -31 68 -44 63 -7
-3 -11 21 -12 72 -1 42 -9 103 -17 136 -8 33 -18 80 -21 103 -7 46 -36 110
-67 151 -27 34 -24 52 26 180 106 268 161 508 187 803 6 81 16 144 20 142 4
-3 8 -9 8 -14z m-3790 -625 c7 -9 8 -15 2 -15 -5 0 -12 7 -16 15 -3 8 -4 15
-2 15 2 0 9 -7 16 -15z m-4815 -588 c72 -30 129 -59 128 -63 -2 -10 -23 -70
-34 -99 -4 -11 -19 -58 -33 -105 -118 -380 -115 -371 -137 -359 -21 11 -23 26
-9 63 6 18 6 26 -1 26 -6 0 -9 6 -6 14 3 7 0 22 -7 32 -7 11 -18 45 -26 76
-10 45 -10 60 -1 72 10 12 9 19 -2 38 -15 24 -16 65 -2 88 5 9 1 19 -13 30
-13 11 -17 22 -12 30 4 7 1 32 -7 57 -12 36 -13 52 -3 86 6 23 11 50 11 60 0
11 5 16 12 13 7 -3 71 -29 142 -59z m450 -164 c305 -97 822 -217 1030 -239 22
-2 64 -9 94 -14 30 -6 71 -10 90 -10 20 0 42 -4 50 -9 15 -10 15 -11 -24 -356
-23 -206 -43 -409 -55 -555 -6 -74 -15 -178 -20 -230 -6 -52 -12 -124 -15
-160 -13 -167 -26 -340 -40 -505 -8 -99 -15 -207 -15 -240 0 -33 -3 -71 -7
-83 -5 -22 -9 -23 -52 -17 -25 4 -59 9 -76 10 -172 18 -428 63 -437 79 -14 20
-8 36 12 36 11 0 20 5 20 10 0 6 -5 10 -12 10 -6 0 -2 10 10 23 26 28 28 43 6
55 -11 6 -18 28 -22 63 -4 46 -28 99 -53 119 -4 3 -23 32 -42 65 -20 33 -52
77 -72 97 -19 20 -35 47 -35 59 0 23 -51 79 -72 79 -13 0 -38 44 -38 67 0 7 6
22 13 34 10 18 9 23 -15 40 -16 12 -28 25 -28 31 0 6 -14 26 -31 45 -22 26
-29 42 -25 58 5 18 1 24 -18 29 -14 3 -26 16 -30 30 -3 14 -12 31 -19 38 -19
19 -47 78 -47 100 0 10 -4 18 -8 18 -4 0 -8 8 -9 18 -1 9 -7 44 -14 77 -6 33
-11 73 -10 89 0 31 -44 93 -64 88 -6 -1 -18 9 -25 23 -29 54 -49 16 -52 -97
-2 -82 -1 -86 30 -124 18 -21 32 -47 32 -57 0 -10 7 -25 15 -33 8 -9 15 -24
15 -34 0 -10 5 -22 10 -25 6 -3 10 -23 10 -44 0 -22 6 -44 15 -51 8 -7 15 -20
15 -30 0 -10 7 -23 15 -30 8 -7 13 -16 10 -20 -2 -4 4 -15 15 -25 15 -14 20
-31 20 -69 0 -28 6 -60 14 -71 14 -21 28 -81 30 -130 1 -23 5 -29 19 -27 11 2
25 -10 40 -35 12 -21 21 -41 20 -45 -1 -3 4 -12 12 -18 20 -17 19 -26 -7 -50
-32 -30 -46 -25 -60 23 -7 23 -19 47 -28 54 -8 6 -33 36 -55 66 -21 31 -42 54
-46 51 -10 -6 -39 42 -39 65 0 11 5 23 10 26 6 3 10 23 10 44 0 42 -60 136
-95 147 -23 8 -85 70 -85 86 0 5 -11 24 -25 40 -14 17 -24 32 -22 34 5 6 71
-20 80 -31 5 -6 7 -3 3 7 -3 10 -1 20 4 23 6 4 10 16 10 28 0 29 -44 123 -62
133 -26 16 -50 63 -46 89 3 14 1 28 -4 31 -5 4 -7 17 -4 30 4 13 2 32 -3 41
-15 28 -45 204 -43 246 3 41 -26 100 -53 111 -8 3 -15 15 -15 26 0 11 -7 20
-15 20 -9 0 -25 16 -36 35 -12 19 -27 35 -35 35 -17 0 -17 0 0 52 8 24 40 124
71 223 31 99 63 196 70 215 7 19 18 49 25 67 l12 31 66 -25 c37 -14 144 -50
237 -80z m-3315 -164 c0 -11 -4 -17 -10 -14 -5 3 -10 13 -10 21 0 8 5 14 10
14 6 0 10 -9 10 -21z m10 -85 c0 -33 -1 -34 -35 -31 -40 2 -39 -1 -24 69 l12
52 23 -28 c15 -17 24 -40 24 -62z m6775 14 c-4 -18 -11 -34 -16 -36 -5 -2 -9
-12 -9 -22 0 -9 -7 -23 -15 -30 -12 -10 -15 -9 -15 7 0 11 -7 20 -15 20 -12 0
-11 -6 5 -32 21 -34 26 -70 11 -79 -4 -3 -12 -20 -16 -38 -4 -18 -9 -35 -9
-38 -12 -38 -19 -50 -27 -50 -12 0 -12 36 1 59 7 14 4 24 -12 41 -26 28 -32
17 -19 -40 5 -23 7 -49 4 -57 -3 -9 2 -16 15 -20 22 -5 77 -115 61 -121 -5 -2
-7 -8 -3 -13 8 -13 -29 -56 -44 -51 -7 2 -12 -5 -12 -16 0 -11 5 -22 11 -24
21 -7 -3 -36 -36 -42 -27 -5 -41 -18 -66 -56 -22 -34 -41 -51 -60 -55 -30 -7
-59 -38 -59 -64 0 -8 -16 -29 -35 -47 -33 -33 -53 -44 -40 -25 3 6 -1 65 -9
133 -18 149 -41 359 -58 526 -13 140 -13 141 57 142 22 0 58 5 80 10 22 5 67
11 100 15 33 3 78 10 100 15 38 9 77 15 118 19 16 1 18 -4 12 -31z m-2007 -58
c252 -21 673 -30 946 -20 268 10 486 24 538 35 34 8 31 22 68 -345 5 -58 17
-164 25 -237 22 -193 20 -224 -11 -254 -40 -37 -74 -118 -74 -176 0 -63 13
-101 62 -182 21 -35 37 -69 35 -75 -3 -6 11 -41 30 -78 29 -56 35 -77 35 -135
1 -92 -9 -130 -36 -137 -40 -11 -66 -7 -66 11 0 21 -28 53 -47 53 -7 0 -16 13
-19 29 -4 17 -12 32 -20 35 -8 3 -14 12 -14 20 0 7 -7 17 -16 20 -8 3 -24 26
-35 51 -11 25 -24 45 -28 45 -5 0 -3 19 3 42 13 44 3 98 -19 98 -5 0 -30 23
-54 50 -41 48 -72 62 -86 40 -7 -12 -79 -50 -93 -50 -6 0 -12 9 -15 20 -3 11
-22 28 -44 37 -40 17 -121 25 -138 13 -5 -4 -22 -10 -37 -14 -22 -5 -25 -3
-21 14 3 11 0 20 -6 20 -6 0 -11 -4 -11 -10 0 -5 -17 -10 -39 -10 -40 0 -99
-16 -116 -32 -7 -6 -5 -9 5 -7 8 1 23 -1 33 -6 16 -7 16 -9 -4 -26 l-21 -18
25 -12 c34 -15 41 -36 17 -49 -24 -13 -31 -13 -27 1 1 6 -7 16 -18 22 -11 7
-23 16 -26 21 -4 5 -10 -1 -14 -13 -7 -23 -21 -28 -28 -8 -3 10 -9 10 -26 0
-26 -16 -24 -17 -54 10 -66 58 -87 68 -87 42 0 -19 -16 -19 -69 0 -47 16 -118
11 -163 -12 -26 -13 -28 -12 -28 7 0 12 -4 19 -10 15 -5 -3 -7 -12 -4 -20 12
-30 -100 -101 -139 -89 -12 4 -19 3 -14 -1 4 -5 -11 -19 -33 -32 -22 -13 -40
-28 -40 -33 0 -5 -8 -7 -17 -3 -14 5 -15 3 -7 -6 9 -10 8 -23 -4 -52 -14 -36
-14 -44 3 -99 18 -58 18 -61 0 -100 -18 -40 -45 -71 -32 -37 3 9 3 19 -2 21
-9 6 -35 -140 -26 -154 3 -5 0 -48 -7 -94 l-12 -86 29 -30 c22 -23 26 -32 17
-43 -17 -20 3 -74 41 -114 17 -18 28 -35 26 -38 -3 -2 -61 2 -130 10 -68 8
-143 15 -166 15 -23 0 -44 3 -46 8 -2 4 0 57 4 117 5 61 13 182 19 270 11 153
23 300 55 650 8 88 19 219 25 290 6 72 17 186 25 255 7 69 19 177 25 240 17
179 31 293 37 313 4 14 11 17 30 13 13 -4 77 -11 141 -16z m1670 -1829 c20 -1
22 -6 22 -67 l0 -66 -23 14 c-22 15 -84 17 -106 4 -6 -4 -11 -2 -11 4 0 6 -8
9 -17 6 -10 -3 -29 1 -43 9 l-25 13 28 7 c47 12 31 28 -22 23 -37 -4 -59 -13
-86 -36 -20 -18 -47 -32 -60 -32 -13 0 -28 -6 -32 -13 -10 -17 -40 -30 -71
-32 -33 -1 -37 13 -8 27 14 6 26 16 26 22 1 30 96 91 155 99 11 2 29 8 40 14
17 10 102 12 233 4z m72 -26 c8 -7 39 -15 69 -18 29 -4 64 -13 77 -22 13 -8
24 -13 24 -9 0 4 7 1 15 -6 8 -6 19 -9 25 -5 6 4 21 0 34 -8 13 -9 52 -21 87
-28 87 -16 91 -17 84 -29 -4 -6 11 -10 37 -10 25 0 53 -7 64 -15 10 -8 28 -15
39 -15 17 0 17 -2 5 -14 -13 -11 -155 -40 -304 -60 l-39 -5 22 23 c27 29 17
38 -38 35 -42 -3 -91 22 -91 46 0 21 -28 31 -87 30 -59 -1 -63 5 -63 88 0 49
4 51 40 22z m1005 -153 c4 -10 14 -13 35 -8 23 4 30 2 30 -10 0 -10 6 -14 18
-10 9 3 32 -3 50 -13 l33 -17 -22 -27 c-17 -22 -24 -25 -35 -16 -18 15 -101
-6 -127 -33 -19 -19 -47 -24 -47 -8 0 18 -39 -13 -44 -35 -3 -11 -11 -28 -19
-39 -12 -16 -15 -16 -28 -4 -36 36 -82 42 -116 16 -6 -5 -29 -8 -50 -7 -44 3
-67 -7 -57 -23 5 -8 1 -9 -12 -3 -10 4 -29 10 -42 13 -17 3 -22 10 -20 26 3
19 10 21 88 24 47 1 87 7 88 12 2 6 11 10 20 10 12 0 9 4 -8 13 -15 8 -27 24
-30 42 -4 26 -10 31 -42 35 -29 4 -35 8 -29 19 6 9 35 15 82 19 41 2 77 9 80
14 18 28 194 36 204 10z m-1836 -23 c32 -7 46 -7 51 2 9 14 50 -23 50 -45 0
-8 -15 -32 -34 -55 -19 -22 -36 -45 -38 -50 -2 -6 -70 -11 -163 -12 l-160 -1
3 34 c7 68 21 81 102 99 41 9 89 22 105 27 39 13 33 13 84 1z m-1706 -54 c45
-9 118 -20 162 -26 166 -22 221 -28 237 -29 16 0 17 -13 11 -152 -3 -84 -7
-155 -9 -157 -5 -6 -114 42 -114 51 0 4 -13 14 -30 23 -16 9 -30 21 -30 28 0
7 -39 26 -87 42 -72 25 -90 35 -106 63 -11 18 -46 51 -78 73 -33 22 -59 44
-59 50 0 6 -7 17 -15 25 -23 23 -18 37 10 30 14 -4 63 -13 108 -21z m2975 -2
c-10 -2 -26 -2 -35 0 -10 3 -2 5 17 5 19 0 27 -2 18 -5z m-178 -27 c0 -2 -13
-6 -30 -8 -16 -3 -30 -1 -30 4 0 4 14 8 30 8 17 0 30 -2 30 -4z m-2102 -58
c84 -9 102 -14 102 -28 0 -21 60 -100 77 -100 27 0 93 -36 99 -54 7 -20 19
-19 144 4 106 21 132 22 155 10 27 -15 69 -5 45 10 -8 5 -12 11 -10 13 3 2 19
13 37 26 18 12 38 34 45 49 l13 27 163 8 c90 5 166 6 170 3 3 -4 -3 -13 -14
-22 -18 -15 -18 -15 0 -10 15 5 17 2 13 -16 -3 -13 -11 -49 -18 -80 -8 -33
-19 -58 -26 -58 -19 0 -30 -30 -32 -83 -1 -54 -24 -107 -45 -107 -20 0 -27
-27 -10 -40 10 -9 14 -9 14 -1 0 9 5 9 20 1 13 -7 26 -7 37 -1 9 5 51 6 94 4
56 -4 84 -2 106 9 20 10 37 12 52 6 13 -4 27 -5 33 -2 26 16 107 3 164 -26 32
-17 64 -35 70 -41 11 -9 5 -65 -14 -126 -6 -18 -8 -58 -5 -89 4 -40 2 -58 -7
-64 -7 -4 -13 -23 -12 -41 0 -18 -4 -39 -10 -46 -8 -10 -6 -18 6 -31 9 -10 16
-23 16 -28 1 -16 34 -48 87 -84 29 -19 55 -43 58 -52 7 -21 31 -24 38 -5 3 9
9 7 24 -5 26 -24 60 -23 102 3 19 11 45 25 58 30 22 8 23 7 23 -37 0 -37 -4
-47 -20 -51 -11 -3 -20 -9 -20 -13 0 -4 9 -15 20 -25 29 -26 25 -40 -16 -60
-39 -18 -64 -14 -64 10 0 11 -6 14 -23 10 -16 -4 -31 1 -50 19 -38 35 -110 39
-134 8 -11 -16 -12 -16 -13 1 0 9 -4 17 -10 17 -5 0 -10 6 -10 14 0 8 -5 18
-11 22 -8 4 -9 0 -4 -15 7 -24 5 -25 -29 -9 -21 9 -24 14 -14 26 10 12 8 18
-11 33 -13 10 -40 24 -61 30 -24 7 -41 19 -45 33 l-6 21 -9 -21 c-12 -30 -26
-36 -40 -19 -7 8 -20 15 -30 15 -10 0 -25 11 -33 24 -14 21 -14 26 -1 45 14
19 13 21 0 21 -19 0 -22 20 -3 20 6 0 -1 11 -18 23 -16 12 -46 38 -66 57 -20
19 -55 48 -78 64 -41 30 -57 64 -23 52 16 -7 16 -6 0 10 -14 15 -19 15 -33 4
-21 -17 -99 -14 -137 6 -15 8 -38 14 -50 14 -13 0 -41 9 -63 20 -22 11 -59 20
-83 20 -56 0 -105 29 -212 126 -129 117 -181 133 -295 94 -32 -11 -69 -20 -82
-20 -13 0 -41 9 -63 20 -22 11 -49 20 -60 20 -26 0 -100 39 -117 61 -7 9 -31
19 -55 23 -23 4 -48 12 -55 18 -14 12 -18 143 -6 262 l6 68 81 -6 c45 -4 127
-12 184 -18z m2147 -88 c3 -5 19 -10 35 -10 16 0 32 -5 36 -11 8 -14 -14 -29
-43 -29 -12 0 -28 -6 -35 -13 -16 -17 -83 -10 -99 9 -6 8 -20 14 -30 14 -28 0
-23 17 9 33 31 17 118 22 127 7z m1585 -390 c0 -5 -7 -10 -15 -10 -8 0 -28 -8
-44 -18 -29 -17 -29 -19 -12 -34 14 -12 29 -14 59 -8 22 4 58 4 78 1 33 -5 39
-11 47 -41 11 -45 11 -45 40 -25 17 11 27 13 32 5 9 -14 25 -271 33 -532 l7
-218 -90 -34 c-222 -84 -698 -228 -915 -276 -19 -4 -75 -17 -125 -28 -191 -43
-441 -89 -595 -111 -381 -54 -343 -53 -344 -12 -1 31 3 36 44 55 25 11 48 20
52 21 15 1 21 17 9 24 -18 12 -5 31 21 31 17 0 18 3 8 15 -16 19 -6 33 40 51
38 15 57 33 98 92 20 27 21 33 8 38 -21 8 -28 32 -14 53 8 13 8 30 1 59 -8 29
-7 44 1 52 7 7 7 16 -2 31 -9 14 -10 24 -3 33 8 9 5 16 -12 26 -39 23 -112
111 -99 119 16 10 -15 43 -57 61 -37 15 -76 1 -84 -31 -9 -36 -27 -19 -27 24
0 66 20 79 111 73 81 -5 118 -15 138 -40 7 -9 18 -16 23 -16 5 0 21 -9 35 -20
15 -11 29 -18 32 -15 3 4 -1 10 -8 14 -10 7 -5 14 19 32 17 13 38 36 46 51 8
15 24 30 37 33 18 5 22 12 21 43 -2 43 8 66 47 108 22 23 37 30 60 28 23 -2
33 3 36 16 3 12 18 19 50 24 32 4 58 17 87 41 40 34 47 41 95 90 43 45 109 24
79 -24 -6 -10 -24 -26 -39 -35 -26 -15 -31 -46 -8 -46 5 0 9 -7 9 -15 0 -8 5
-15 10 -15 6 0 10 6 10 13 0 6 23 23 51 37 54 26 100 60 82 60 -17 0 -25 31
-12 46 17 21 39 17 48 -8 7 -20 15 -23 69 -23 44 0 65 -5 81 -19 11 -10 18
-23 15 -27 -14 -23 31 -17 111 16 91 37 115 42 115 25 0 -5 24 -10 53 -10 43
0 59 5 85 26 18 15 32 32 32 38 0 11 13 17 90 45 19 7 55 21 80 31 53 21 70
24 70 10z m2236 -167 c4 -32 7 -61 6 -65 -1 -3 -4 -20 -7 -37 -10 -55 -52
-156 -94 -226 -23 -37 -41 -69 -41 -71 0 -2 -20 -35 -45 -73 -25 -38 -45 -72
-45 -75 0 -11 -92 -162 -114 -186 -12 -14 -35 -65 -51 -115 -36 -114 -179
-405 -192 -391 -3 3 1 16 9 28 23 35 94 230 132 364 64 224 126 593 126 747 0
73 1 78 24 87 22 8 61 7 139 -4 21 -2 42 7 80 35 28 22 55 39 59 39 3 0 10
-26 14 -57z m-1918 5 c26 -16 33 -26 29 -44 -3 -20 -1 -21 20 -13 27 10 102
-9 110 -28 3 -8 12 -7 31 3 15 8 33 14 39 14 7 0 41 15 75 34 87 46 121 55
214 58 57 2 87 -2 98 -11 10 -8 28 -11 45 -8 34 7 56 -12 66 -58 4 -16 15 -49
26 -72 17 -39 21 -42 49 -37 27 6 30 4 30 -19 0 -21 -48 -114 -79 -151 -14
-17 -499 -256 -520 -256 -5 0 -22 -6 -38 -14 -45 -24 -216 -92 -245 -100 -25
-6 -28 -4 -28 21 -1 80 -31 643 -36 677 l-7 38 44 -7 c24 -4 59 -16 77 -27z
m1588 -145 c-19 -325 -123 -769 -246 -1053 -35 -82 -44 -90 -259 -238 -114
-79 -471 -302 -482 -302 -5 0 -32 -15 -61 -33 -48 -30 -115 -64 -313 -159 -38
-19 -119 -56 -180 -82 -60 -27 -124 -54 -142 -62 -17 -8 -34 -14 -38 -14 -4 0
-21 -6 -38 -14 -70 -30 -90 -37 -94 -33 -2 3 5 36 17 73 11 38 25 83 30 99 16
55 58 268 74 375 32 215 46 362 57 605 6 138 14 253 17 256 7 5 24 12 167 69
44 17 113 47 153 66 40 19 77 34 82 34 6 0 31 11 57 25 27 14 112 57 191 95
l143 70 -21 -39 c-11 -22 -20 -47 -20 -55 0 -8 -14 -28 -31 -45 -17 -17 -27
-31 -22 -31 8 0 67 59 106 106 10 12 20 34 23 50 5 33 35 61 73 70 14 4 33 12
41 19 23 19 81 47 87 42 7 -7 -16 -85 -27 -92 -6 -3 -10 -12 -10 -18 1 -19 40
33 40 53 0 28 80 89 123 94 20 2 41 8 48 11 6 4 28 10 48 12 20 3 42 10 50 16
18 15 54 -28 46 -54 -9 -28 10 -23 25 7 15 27 86 74 113 74 8 0 22 6 29 14 8
7 24 17 36 20 13 4 42 25 65 47 23 21 44 39 46 39 2 0 0 -53 -3 -117z m-1683
-700 c-6 -303 -54 -781 -93 -933 -5 -19 -19 -78 -30 -130 -12 -52 -30 -120
-41 -151 -10 -30 -19 -63 -19 -72 0 -9 -1 -17 -3 -17 -1 0 -40 -14 -87 -30
-263 -95 -570 -189 -764 -235 -58 -14 -108 -25 -111 -25 -3 0 -5 17 -5 39 0
42 -13 51 -73 51 -16 0 -26 4 -23 9 6 10 -30 16 -164 31 -172 19 -251 39 -296
79 -21 18 -23 25 -13 37 10 12 6 21 -21 49 -19 19 -40 35 -47 35 -7 0 -13 9
-13 20 0 11 -4 20 -10 20 -14 0 -81 76 -98 110 -8 17 -18 30 -23 30 -5 0 -17
17 -28 38 -11 21 -31 43 -45 50 -15 6 -31 23 -38 37 -6 14 -15 25 -20 25 -10
0 -11 286 0 308 5 9 6 67 3 129 l-6 112 110 15 c488 70 739 118 1145 220 48
12 269 78 290 86 14 5 36 11 50 14 45 8 427 139 438 151 3 3 12 5 21 5 14 0
16 -15 14 -107z m-2083 -480 c0 -122 -4 -130 -56 -112 -46 16 -65 29 -41 29
15 0 17 7 12 49 -5 43 -3 49 15 54 11 3 20 13 20 23 0 18 27 54 42 54 4 0 8
-44 8 -97z m3434 -28 c-21 -25 -46 -58 -55 -73 -31 -53 -211 -222 -236 -222
-4 0 -39 -29 -78 -65 -38 -35 -73 -65 -77 -65 -23 -1 -318 -275 -318 -295 0
-16 -87 -109 -142 -153 -26 -20 -78 -62 -115 -93 -37 -31 -99 -77 -138 -103
-38 -27 -81 -58 -95 -70 -93 -82 -348 -222 -438 -241 -26 -5 -31 -10 -22 -20
12 -14 9 -17 -75 -72 -38 -25 -160 -84 -215 -104 -16 -6 2 16 52 63 180 171
285 346 410 680 11 28 6 26 266 132 116 47 500 234 628 305 152 84 569 356
644 420 48 41 50 30 4 -24z m-3434 -275 l0 -131 -37 7 c-46 8 -93 31 -93 44 0
6 7 10 15 10 20 0 19 17 -2 28 -9 6 -14 16 -10 25 3 9 -1 18 -8 21 -23 9 -5
40 50 85 81 67 85 63 85 -89z m1875 -562 c-33 -120 -139 -333 -249 -499 -42
-64 -252 -268 -284 -276 -15 -3 -54 -17 -87 -31 -230 -92 -924 -279 -939 -253
-8 13 14 51 30 51 19 0 168 86 185 106 6 8 15 14 20 14 18 0 48 40 58 78 7 24
20 43 36 52 14 8 24 18 22 24 -2 6 25 42 60 81 34 38 63 74 63 79 0 5 9 19 19
30 11 12 22 41 25 65 3 28 12 51 24 60 26 21 56 79 58 114 1 16 6 32 10 36 5
4 52 18 104 30 88 21 275 73 430 119 79 24 286 94 355 121 65 25 67 25 60 -1z
m-815 -893 c0 -14 -536 -174 -721 -214 -79 -17 -126 -15 -106 5 4 4 76 22 160
40 273 57 405 91 557 142 87 30 110 36 110 27z"/>
        <path d="M5750 12716 c0 -2 8 -10 18 -17 15 -13 16 -12 3 4 -13 16 -21 21 -21
13z"/>
        <path d="M6975 12658 l-40 -43 43 40 c39 36 47 45 39 45 -2 0 -21 -19 -42 -42z"/>
        <path d="M5806 12670 c46 -55 67 -76 56 -55 -6 11 -25 34 -44 50 -25 23 -28
24 -12 5z"/>
        <path d="M5968 12643 c12 -2 32 -2 45 0 12 2 2 4 -23 4 -25 0 -35 -2 -22 -4z"/>
        <path d="M6788 12643 c12 -2 32 -2 45 0 12 2 2 4 -23 4 -25 0 -35 -2 -22 -4z"/>
        <path d="M5199 12623 c-13 -16 -12 -17 4 -4 16 13 21 21 13 21 -2 0 -10 -8
-17 -17z"/>
        <path d="M5773 12623 c9 -2 25 -2 35 0 9 3 1 5 -18 5 -19 0 -27 -2 -17 -5z"/>
        <path d="M6993 12623 c9 -2 25 -2 35 0 9 3 1 5 -18 5 -19 0 -27 -2 -17 -5z"/>
        <path d="M5713 12613 c9 -2 23 -2 30 0 6 3 -1 5 -18 5 -16 0 -22 -2 -12 -5z"/>
        <path d="M7058 12613 c6 -2 18 -2 25 0 6 3 1 5 -13 5 -14 0 -19 -2 -12 -5z"/>
        <path d="M6915 12584 c-9 -15 -12 -23 -6 -20 11 7 35 46 28 46 -3 0 -12 -12
-22 -26z"/>
        <path d="M5583 12593 c9 -2 23 -2 30 0 6 3 -1 5 -18 5 -16 0 -22 -2 -12 -5z"/>
        <path d="M7188 12593 c6 -2 18 -2 25 0 6 3 1 5 -13 5 -14 0 -19 -2 -12 -5z"/>
        <path d="M5870 12586 c0 -2 8 -10 18 -17 15 -13 16 -12 3 4 -13 16 -21 21 -21
13z"/>
        <path d="M5438 12563 c7 -3 16 -2 19 1 4 3 -2 6 -13 5 -11 0 -14 -3 -6 -6z"/>
        <path d="M5310 12540 c-18 -12 -2 -12 25 0 13 6 15 9 5 9 -8 0 -22 -4 -30 -9z"/>
        <path d="M6879 12533 c-13 -16 -12 -17 4 -4 16 13 21 21 13 21 -2 0 -10 -8
-17 -17z"/>
        <path d="M7441 12546 c2 -2 18 -6 34 -10 22 -5 26 -4 15 4 -14 9 -59 15 -49 6z"/>
        <path d="M5258 12523 c7 -3 16 -2 19 1 4 3 -2 6 -13 5 -11 0 -14 -3 -6 -6z"/>
        <path d="M5218 12513 c7 -3 16 -2 19 1 4 3 -2 6 -13 5 -11 0 -14 -3 -6 -6z"/>
        <path d="M5920 12515 c0 -5 10 -21 21 -35 13 -17 17 -18 10 -5 -17 33 -31 51
-31 40z"/>
        <path d="M7568 12513 c7 -3 16 -2 19 1 4 3 -2 6 -13 5 -11 0 -14 -3 -6 -6z"/>
        <path d="M6856 12493 c-6 -14 -5 -15 5 -6 7 7 10 15 7 18 -3 3 -9 -2 -12 -12z"/>
        <path d="M6825 12440 c-9 -16 -13 -30 -11 -30 3 0 12 14 21 30 9 17 13 30 11
30 -3 0 -12 -13 -21 -30z"/>
        <path d="M5960 12441 c0 -6 4 -13 10 -16 6 -3 7 1 4 9 -7 18 -14 21 -14 7z"/>
        <path d="M4628 12413 c6 -2 18 -2 25 0 6 3 1 5 -13 5 -14 0 -19 -2 -12 -5z"/>
        <path d="M4888 12413 c7 -3 16 -2 19 1 4 3 -2 6 -13 5 -11 0 -14 -3 -6 -6z"/>
        <path d="M7898 12413 c7 -3 16 -2 19 1 4 3 -2 6 -13 5 -11 0 -14 -3 -6 -6z"/>
        <path d="M8148 12413 c6 -2 18 -2 25 0 6 3 1 5 -13 5 -14 0 -19 -2 -12 -5z"/>
        <path d="M6791 12373 c-10 -26 -10 -27 4 -9 8 11 15 23 15 28 0 15 -7 8 -19
-19z"/>
        <path d="M4790 12380 c0 -5 7 -7 15 -4 8 4 15 8 15 10 0 2 -7 4 -15 4 -8 0
-15 -4 -15 -10z"/>
        <path d="M5996 12377 c3 -10 9 -15 12 -12 3 3 0 11 -7 18 -10 9 -11 8 -5 -6z"/>
        <path d="M7967 12383 c-3 -5 6 -8 19 -8 13 0 24 3 24 8 0 4 -9 7 -19 7 -11 0
-22 -3 -24 -7z"/>
        <path d="M4740 12360 c-8 -5 -10 -10 -5 -10 6 0 17 5 25 10 8 5 11 10 5 10 -5
0 -17 -5 -25 -10z"/>
        <path d="M4848 12363 c6 -2 18 -2 25 0 6 3 1 5 -13 5 -14 0 -19 -2 -12 -5z"/>
        <path d="M7928 12363 c7 -3 16 -2 19 1 4 3 -2 6 -13 5 -11 0 -14 -3 -6 -6z"/>
        <path d="M8040 12360 c8 -5 20 -10 25 -10 6 0 3 5 -5 10 -8 5 -19 10 -25 10
-5 0 -3 -5 5 -10z"/>
        <path d="M4979 12320 c24 -11 46 -20 50 -20 12 1 -64 39 -79 39 -8 0 5 -8 29
-19z"/>
        <path d="M7810 12325 c-33 -19 -21 -19 21 0 19 8 27 14 19 14 -8 0 -26 -6 -40
-14z"/>
        <path d="M6765 12319 c-4 -6 -5 -12 -2 -15 2 -3 7 2 10 11 7 17 1 20 -8 4z"/>
        <path d="M4584 12294 c-18 -14 -18 -14 6 -3 31 14 36 19 24 19 -6 0 -19 -7
-30 -16z"/>
        <path d="M7710 12285 c-14 -8 -20 -14 -15 -14 6 0 21 6 35 14 14 8 21 14 15
14 -5 0 -21 -6 -35 -14z"/>
        <path d="M5149 12245 c36 -19 66 -33 68 -31 4 4 -112 66 -123 66 -5 0 20 -16
55 -35z"/>
        <path d="M6885 12250 c3 -5 8 -10 11 -10 2 0 4 5 4 10 0 6 -5 10 -11 10 -5 0
-7 -4 -4 -10z"/>
        <path d="M8290 12255 c0 -2 23 -16 50 -30 28 -14 50 -23 50 -20 0 2 -22 16
-50 30 -27 14 -50 23 -50 20z"/>
        <path d="M7609 12233 c-13 -17 -13 -17 6 -3 11 8 22 16 24 17 2 2 0 3 -6 3 -6
0 -17 -8 -24 -17z"/>
        <path d="M4428 12219 c-21 -11 -38 -22 -38 -24 0 -3 18 4 40 15 22 11 40 23
40 25 0 7 0 7 -42 -16z"/>
        <path d="M4360 12180 c-9 -6 -10 -10 -3 -10 6 0 15 5 18 10 8 12 4 12 -15 0z"/>
        <path d="M8420 12186 c0 -3 9 -10 20 -16 11 -6 20 -8 20 -6 0 3 -9 10 -20 16
-11 6 -20 8 -20 6z"/>
        <path d="M5817 12143 c-4 -3 -7 -11 -7 -17 0 -6 5 -5 12 2 6 6 9 14 7 17 -3 3
-9 2 -12 -2z"/>
        <path d="M8495 12143 c6 -6 28 -20 50 -32 22 -13 31 -15 20 -6 -22 18 -86 53
-70 38z"/>
        <path d="M4264 12124 c-18 -14 -18 -15 4 -4 12 6 22 13 22 15 0 8 -5 6 -26
-11z"/>
        <path d="M4214 12094 c-18 -14 -18 -15 4 -4 12 6 22 13 22 15 0 8 -5 6 -26
-11z"/>
        <path d="M5424 12091 c7 -11 46 -35 46 -28 0 3 -12 12 -26 22 -15 9 -23 12
-20 6z"/>
        <path d="M4164 12064 c-18 -14 -18 -15 4 -4 12 6 22 13 22 15 0 8 -5 6 -26
-11z"/>
        <path d="M8640 12056 c0 -3 9 -10 20 -16 11 -6 20 -8 20 -6 0 3 -9 10 -20 16
-11 6 -20 8 -20 6z"/>
        <path d="M4074 12008 c-32 -22 -69 -50 -80 -60 -12 -11 -34 -23 -50 -28 -20
-6 1 -8 71 -7 95 0 96 1 30 6 l-70 6 69 50 c98 71 102 74 95 75 -3 0 -32 -19
-65 -42z"/>
        <path d="M8699 12016 c13 -16 51 -41 51 -33 0 2 -15 14 -32 27 -21 15 -28 17
-19 6z"/>
        <path d="M8806 11938 c10 -15 23 -28 28 -28 12 0 106 -79 179 -149 32 -31 55
-49 52 -41 -4 8 -43 47 -88 85 -44 39 -91 80 -104 93 -13 12 -27 22 -30 22 -4
0 -18 10 -32 23 l-24 22 19 -27z"/>
        <path d="M8718 11913 c17 -2 47 -2 65 0 17 2 3 4 -33 4 -36 0 -50 -2 -32 -4z"/>
        <path d="M4273 11903 c15 -2 37 -2 50 0 12 2 0 4 -28 4 -27 0 -38 -2 -22 -4z"/>
        <path d="M8350 11903 c0 0 21 -11 46 -23 25 -13 49 -32 54 -44 4 -12 15 -28
24 -35 9 -7 13 -17 10 -22 -3 -5 0 -9 5 -9 6 0 11 -7 11 -16 0 -9 6 -14 13
-11 6 2 12 10 12 18 0 9 11 14 30 15 56 1 81 12 82 36 2 21 -11 37 -29 38 -5
0 -8 -9 -8 -20 0 -11 -6 -20 -14 -20 -26 0 -67 20 -62 29 3 5 -3 20 -14 34
l-20 26 32 4 c19 3 12 4 -17 3 -34 -1 -49 -5 -47 -13 1 -8 -8 -13 -20 -13 -17
0 -19 3 -9 9 9 6 -1 10 -33 12 -25 2 -46 3 -46 2z"/>
        <path d="M9011 11906 c2 -2 40 -6 84 -9 60 -4 69 -3 35 3 -46 9 -127 13 -119
6z"/>
        <path d="M4368 11893 c12 -2 30 -2 40 0 9 3 -1 5 -23 4 -22 0 -30 -2 -17 -4z"/>
        <path d="M3880 11858 c-119 -106 -140 -126 -140 -132 0 -4 24 15 53 42 28 27
70 65 92 85 22 20 38 36 35 36 -3 0 -21 -14 -40 -31z"/>
        <path d="M8255 11880 l-30 -8 27 -1 c15 0 30 4 33 9 3 6 5 9 3 9 -2 -1 -16 -5
-33 -9z"/>
        <path d="M4533 11873 c9 -2 23 -2 30 0 6 3 -1 5 -18 5 -16 0 -22 -2 -12 -5z"/>
        <path d="M9278 11873 c6 -2 18 -2 25 0 6 3 1 5 -13 5 -14 0 -19 -2 -12 -5z"/>
        <path d="M3448 11863 c6 -2 18 -2 25 0 6 3 1 5 -13 5 -14 0 -19 -2 -12 -5z"/>
        <path d="M9340 11860 c14 -4 36 -8 50 -8 22 0 22 1 -5 8 -16 4 -39 8 -50 8
-16 0 -15 -2 5 -8z"/>
        <path d="M3398 11853 c6 -2 18 -2 25 0 6 3 1 5 -13 5 -14 0 -19 -2 -12 -5z"/>
        <path d="M4668 11853 c7 -3 16 -2 19 1 4 3 -2 6 -13 5 -11 0 -14 -3 -6 -6z"/>
        <path d="M3348 11843 c6 -2 18 -2 25 0 6 3 1 5 -13 5 -14 0 -19 -2 -12 -5z"/>
        <path d="M4708 11843 c6 -2 18 -2 25 0 6 3 1 5 -13 5 -14 0 -19 -2 -12 -5z"/>
        <path d="M9428 11843 c7 -3 16 -2 19 1 4 3 -2 6 -13 5 -11 0 -14 -3 -6 -6z"/>
        <path d="M3250 11820 c-11 -7 -5 -8 20 -4 43 8 51 14 19 14 -13 0 -31 -5 -39
-10z"/>
        <path d="M4818 11823 c7 -3 16 -2 19 1 4 3 -2 6 -13 5 -11 0 -14 -3 -6 -6z"/>
        <path d="M9498 11823 c6 -2 18 -2 25 0 6 3 1 5 -13 5 -14 0 -19 -2 -12 -5z"/>
        <path d="M4900 11810 c0 -5 5 -10 11 -10 5 0 7 5 4 10 -3 6 -8 10 -11 10 -2 0
-4 -4 -4 -10z"/>
        <path d="M9540 11816 c0 -2 7 -7 16 -10 8 -3 12 -2 9 4 -6 10 -25 14 -25 6z"/>
        <path d="M3180 11800 c-11 -8 -7 -9 15 -4 37 8 45 14 19 14 -10 0 -26 -5 -34
-10z"/>
        <path d="M8850 11799 c-13 -9 -12 -10 2 -5 12 3 15 1 11 -10 -3 -7 0 -14 6
-14 6 0 11 9 11 20 0 22 -8 25 -30 9z"/>
        <path d="M9650 11780 c8 -5 20 -10 25 -10 6 0 3 5 -5 10 -8 5 -19 10 -25 10
-5 0 -3 -5 5 -10z"/>
        <path d="M9770 11740 c8 -5 20 -10 25 -10 6 0 3 5 -5 10 -8 5 -19 10 -25 10
-5 0 -3 -5 5 -10z"/>
        <path d="M9810 11724 c0 -7 71 -36 76 -31 2 2 -14 11 -36 20 -22 8 -40 13 -40
11z"/>
        <path d="M9008 11692 c-11 -13 -10 -15 5 -9 21 8 67 -8 67 -24 0 -11 -17 -9
-67 7 -15 5 -15 4 2 -7 25 -16 45 -20 68 -13 23 7 9 27 -34 48 -25 12 -30 12
-41 -2z"/>
        <path d="M9880 11647 c11 -11 96 -73 110 -81 8 -4 -1 7 -20 24 -28 25 -109 76
-90 57z"/>
        <path d="M4230 11410 l-55 -7 50 -1 c28 0 59 3 70 8 23 10 14 10 -65 0z"/>
        <path d="M3965 11385 c-93 -16 -43 -17 65 0 50 7 68 13 45 13 -22 0 -71 -6
-110 -13z"/>
        <path d="M8780 11384 c36 -7 76 -13 90 -12 14 0 -6 6 -45 14 -38 7 -79 13 -90
12 -11 0 9 -6 45 -14z"/>
        <path d="M3780 11363 c-14 -3 -29 -8 -34 -13 -4 -5 9 -5 30 0 22 5 50 10 64
13 21 4 21 4 -5 4 -16 0 -41 -2 -55 -4z"/>
        <path d="M8941 11366 c2 -2 27 -6 54 -9 34 -4 42 -3 25 3 -25 8 -87 13 -79 6z"/>
        <path d="M3688 11343 c6 -2 18 -2 25 0 6 3 1 5 -13 5 -14 0 -19 -2 -12 -5z"/>
        <path d="M3638 11333 c6 -2 18 -2 25 0 6 3 1 5 -13 5 -14 0 -19 -2 -12 -5z"/>
        <path d="M3588 11323 c6 -2 18 -2 25 0 6 3 1 5 -13 5 -14 0 -19 -2 -12 -5z"/>
        <path d="M9421 11239 c-1 -4 14 -40 33 -80 19 -41 35 -69 35 -64 0 11 -67 153
-68 144z"/>
        <path d="M9921 11136 c8 -8 172 -66 176 -62 2 2 -35 18 -82 35 -83 30 -103 36
-94 27z"/>
        <path d="M9490 11078 c0 -2 9 -28 20 -58 14 -38 18 -44 14 -20 -8 41 -21 80
-29 80 -3 0 -5 -1 -5 -2z"/>
        <path d="M10130 11056 c14 -7 36 -16 50 -20 14 -3 7 3 -15 13 -45 22 -73 27
-35 7z"/>
        <path d="M10210 11026 c0 -2 7 -7 16 -10 8 -3 12 -2 9 4 -6 10 -25 14 -25 6z"/>
        <path d="M10270 10995 c14 -8 30 -14 35 -14 6 0 -1 6 -15 14 -14 8 -29 14 -35
14 -5 0 1 -6 15 -14z"/>
        <path d="M10320 10975 c0 -8 73 -36 78 -30 3 3 3 5 0 5 -3 0 -22 7 -42 15 -20
8 -36 13 -36 10z"/>
        <path d="M10410 10937 c0 -3 62 -38 137 -77 76 -40 150 -81 164 -91 15 -10 31
-19 35 -19 17 0 -69 52 -200 121 -75 39 -136 68 -136 66z"/>
        <path d="M9542 10915 c0 -11 3 -29 8 -40 11 -25 11 1 0 35 -6 20 -8 21 -8 5z"/>
        <path d="M3967 10857 c-32 -11 -56 -21 -54 -24 2 -2 38 8 78 21 41 14 65 24
54 24 -11 0 -46 -10 -78 -21z"/>
        <path d="M9562 10830 c0 -14 2 -19 5 -12 2 6 2 18 0 25 -3 6 -5 1 -5 -13z"/>
        <path d="M3716 10771 c-4 -5 3 -7 14 -4 23 6 26 13 6 13 -8 0 -17 -4 -20 -9z"/>
        <path d="M3890 10670 c-8 -5 -11 -12 -7 -16 4 -4 15 0 24 9 18 18 8 23 -17 7z"/>
        <path d="M7185 11970 c-3 -6 1 -7 9 -4 18 7 21 14 7 14 -6 0 -13 -4 -16 -10z"/>
        <path d="M5140 11740 c8 -5 22 -9 30 -9 10 0 8 3 -5 9 -27 12 -43 12 -25 0z"/>
        <path d="M7390 11465 c0 -5 10 -21 21 -35 13 -17 17 -18 10 -5 -17 33 -31 51
-31 40z"/>
        <path d="M7645 11330 c3 -5 8 -10 11 -10 2 0 4 5 4 10 0 6 -5 10 -11 10 -5 0
-7 -4 -4 -10z"/>
        <path d="M3165 11230 c-13 -5 -14 -9 -5 -9 8 0 24 4 35 9 13 5 14 9 5 9 -8 0
-24 -4 -35 -9z"/>
        <path d="M3118 11213 c7 -3 16 -2 19 1 4 3 -2 6 -13 5 -11 0 -14 -3 -6 -6z"/>
        <path d="M3055 11200 c-13 -5 -14 -9 -5 -9 8 0 24 4 35 9 13 5 14 9 5 9 -8 0
-24 -4 -35 -9z"/>
        <path d="M7318 10933 c7 -3 16 -2 19 1 4 3 -2 6 -13 5 -11 0 -14 -3 -6 -6z"/>
        <path d="M8480 9540 c0 -5 5 -10 10 -10 6 0 10 5 10 10 0 6 -4 10 -10 10 -5 0
-10 -4 -10 -10z"/>
        <path d="M8112 9333 c4 -24 24 -27 24 -3 0 11 -6 20 -14 20 -7 0 -12 -8 -10
-17z"/>
        <path d="M6490 10340 c-8 -5 -12 -12 -9 -15 4 -3 12 1 19 10 14 17 11 19 -10
5z"/>
        <path d="M6935 10270 c-3 -5 -1 -10 4 -10 6 0 11 5 11 10 0 6 -2 10 -4 10 -3
0 -8 -4 -11 -10z"/>
        <path d="M3685 9630 l-30 -8 32 -1 c26 -1 31 -4 27 -18 -5 -14 -4 -15 4 -4 8
11 6 46 -2 40 0 -1 -14 -5 -31 -9z"/>
        <path d="M6122 10059 c-6 -34 -10 -65 -8 -67 6 -5 28 107 24 120 -2 6 -9 -18
-16 -53z"/>
        <path d="M6558 9648 c5 -5 16 -8 23 -6 8 3 3 7 -10 11 -17 4 -21 3 -13 -5z"/>
        <path d="M6580 9488 c0 -5 4 -7 9 -4 5 4 21 2 35 -4 16 -6 35 -6 48 0 26 10
23 11 -44 15 -27 1 -48 -2 -48 -7z"/>
        <path d="M6070 9291 c0 -6 5 -13 10 -16 6 -3 10 1 10 9 0 9 -4 16 -10 16 -5 0
-10 -4 -10 -9z"/>
        <path d="M6430 9055 c13 -14 30 -25 38 -25 7 0 0 11 -16 25 -17 14 -33 25 -38
25 -4 0 3 -11 16 -25z"/>
        <path d="M5680 9390 c0 -6 7 -10 15 -10 8 0 15 2 15 4 0 2 -7 6 -15 10 -8 3
-15 1 -15 -4z"/>
        <path d="M5137 8914 c-3 -3 -1 -20 4 -37 5 -18 9 -33 9 -35 0 -2 -13 -2 -29 0
-21 2 -35 -4 -48 -19 -14 -15 -23 -19 -34 -12 -30 19 -42 9 -18 -15 18 -17 38
-24 82 -28 41 -3 57 -1 57 8 0 14 44 27 48 14 5 -15 54 8 86 41 15 16 38 30
50 30 16 1 17 2 4 6 -9 2 -30 -3 -47 -11 -33 -18 -101 -22 -101 -6 0 13 -57
70 -63 64z"/>
        <path d="M4036 7879 c1 -46 7 -66 23 -83 12 -13 21 -35 21 -54 0 -18 5 -32 10
-32 6 0 10 8 10 18 0 10 3 22 7 26 4 3 8 17 10 29 2 16 1 18 -6 8 -12 -19 -31
-5 -31 25 0 13 -4 24 -9 24 -15 0 -20 39 -6 50 11 9 10 15 -6 31 -10 10 -20
19 -22 19 -2 0 -3 -27 -1 -61z"/>
        <path d="M4103 7705 c-7 -8 -13 -21 -13 -29 0 -8 -8 -16 -17 -19 -15 -3 -14
-5 5 -13 13 -6 23 -13 23 -17 -3 -21 0 -30 6 -23 4 4 8 21 9 39 1 18 3 32 4
32 1 0 3 10 4 23 3 25 -4 27 -21 7z"/>
        <path d="M8355 7170 c-3 -5 -2 -10 4 -10 5 0 13 5 16 10 3 6 2 10 -4 10 -5 0
-13 -4 -16 -10z"/>
        <path d="M7456 6834 c-9 -8 -16 -22 -16 -30 0 -11 -9 -13 -37 -10 -46 5 -108
-18 -145 -52 -33 -30 -35 -42 -8 -42 12 0 17 5 14 13 -9 24 30 45 106 56 41 7
75 13 76 14 8 10 33 67 30 67 -3 0 -12 -7 -20 -16z"/>
        <path d="M7471 6798 c-14 -28 -25 -32 -116 -44 -50 -7 -75 -18 -75 -36 0 -5 8
-5 18 1 10 5 48 11 85 12 54 2 70 6 88 25 12 13 19 31 17 46 l-4 23 -13 -27z"/>
        <path d="M5803 7809 c-14 -37 -10 -49 20 -49 20 0 20 0 1 -14 -19 -14 -19 -15
4 -45 12 -17 22 -38 22 -47 0 -14 3 -14 15 -4 13 11 18 10 30 -6 8 -10 12 -25
10 -32 -3 -8 0 -12 7 -10 14 5 19 36 7 44 -5 3 -7 9 -4 14 7 11 -24 130 -41
158 -22 33 -57 29 -71 -9z"/>
        <path d="M5936 7567 c3 -8 -2 -20 -11 -27 -17 -14 -21 -70 -5 -70 6 0 10 7 10
15 0 8 5 15 10 15 13 0 13 67 0 75 -5 3 -7 0 -4 -8z"/>
        <path d="M6537 7284 c-3 -3 -3 -12 -1 -19 3 -7 -5 -20 -18 -29 -15 -11 -17
-16 -8 -16 8 0 73 -32 144 -70 71 -38 133 -67 137 -64 14 8 10 30 -7 45 -8 7
-13 21 -11 30 4 15 -1 18 -29 17 -39 -1 -57 11 -74 52 -10 25 -18 30 -47 30
-18 0 -44 7 -57 15 -12 8 -25 12 -29 9z"/>
        <path d="M6455 7204 c-16 -25 -16 -25 4 -14 12 6 21 17 21 25 0 21 -5 19 -25
-11z"/>
        <path d="M6482 7190 c-18 -11 -39 -20 -48 -20 -25 0 -86 -36 -142 -84 -55 -47
-50 -58 13 -32 19 8 36 13 36 10 1 -2 2 -8 3 -13 0 -5 4 -12 8 -16 8 -8 90 21
126 44 20 12 25 12 32 0 5 -8 22 -15 37 -16 15 -1 34 -11 43 -21 20 -25 74
-36 90 -17 6 7 29 16 51 20 21 4 41 11 44 15 4 6 -177 111 -255 147 -3 2 -20
-6 -38 -17z"/>
        <path d="M6800 7058 c0 -9 -5 -18 -12 -20 -7 -3 -8 -7 -3 -10 16 -9 34 17 24
33 -7 11 -9 11 -9 -3z"/>
        <path d="M6713 6955 c-17 -8 -34 -19 -38 -25 -3 -5 -11 -10 -16 -10 -6 0 -7 5
-4 10 12 20 -8 10 -31 -15 -13 -14 -27 -37 -30 -50 -3 -14 -10 -25 -14 -25 -4
0 -11 -8 -14 -17 -6 -15 -5 -15 13 1 34 31 35 1 2 -129 -11 -44 0 -159 19
-194 15 -29 47 -24 73 10 24 34 33 108 17 140 -16 28 -22 107 -9 114 5 4 9 16
9 28 0 12 13 37 29 56 25 30 30 31 34 15 4 -17 5 -17 6 2 0 11 5 24 10 30 5 5
11 23 13 39 4 36 -18 42 -69 20z"/>
        <path d="M6810 6958 c0 -7 21 -22 48 -32 26 -11 52 -23 57 -27 15 -11 18 -119
3 -119 -6 0 -8 -3 -5 -7 4 -3 0 -14 -9 -24 -20 -22 -9 -46 12 -28 7 6 12 15 9
19 -5 9 18 20 42 20 8 0 22 -18 31 -41 13 -35 17 -38 23 -21 4 11 -3 58 -18
114 -25 94 -26 95 -69 117 -24 11 -44 25 -44 31 0 5 -18 10 -40 10 -25 0 -40
-5 -40 -12z"/>
        <path d="M7094 6595 c-14 -14 -29 -25 -34 -25 -6 0 -15 -9 -22 -20 -8 -12 -24
-20 -41 -20 -16 0 -26 -4 -22 -10 12 -20 58 -9 98 24 23 19 62 40 86 47 41 12
43 14 20 20 -43 12 -60 9 -85 -16z"/>
        <path d="M6995 6580 c-3 -5 -2 -10 4 -10 5 0 13 5 16 10 3 6 2 10 -4 10 -5 0
-13 -4 -16 -10z"/>
        <path d="M6950 6509 c0 -12 25 -22 41 -17 6 2 0 9 -15 16 -16 7 -26 8 -26 1z"/>
        <path d="M7560 6291 c0 -6 4 -13 10 -16 6 -3 7 1 4 9 -7 18 -14 21 -14 7z"/>
        <path d="M7560 6238 c0 -9 5 -20 10 -23 13 -8 13 5 0 25 -8 13 -10 13 -10 -2z"/>
        <path d="M7630 5950 c-12 -8 -11 -10 8 -10 12 0 22 5 22 10 0 13 -11 13 -30 0z"/>
        <path d="M6365 5210 c-8 -13 20 -24 36 -15 8 6 7 10 -2 16 -18 11 -26 11 -34
-1z"/>
        <path d="M5610 4321 c0 -6 4 -13 10 -16 6 -3 7 1 4 9 -7 18 -14 21 -14 7z"/>
        <path d="M6590 3969 c0 -5 5 -7 10 -4 6 3 10 8 10 11 0 2 -4 4 -10 4 -5 0 -10
-5 -10 -11z"/>
        <path d="M8363 3347 c-29 -42 -29 -54 3 -83 30 -29 60 -19 70 22 5 20 1 31
-19 48 -14 11 -27 27 -29 33 -1 7 -13 -2 -25 -20z"/>
        <path d="M10575 3100 c-10 -11 -13 -20 -7 -20 6 0 16 9 22 20 6 11 9 20 7 20
-2 0 -12 -9 -22 -20z"/>
        <path d="M10070 2794 c0 -8 5 -12 10 -9 6 3 10 10 10 16 0 5 -4 9 -10 9 -5 0
-10 -7 -10 -16z"/>
        <path d="M9307 2599 c7 -7 15 -10 18 -7 3 3 -2 9 -12 12 -14 6 -15 5 -6 -5z"/>
        <path d="M9378 2593 c7 -3 16 -2 19 1 4 3 -2 6 -13 5 -11 0 -14 -3 -6 -6z"/>
        <path d="M9490 2530 c0 -7 24 -20 36 -20 13 0 1 19 -16 23 -11 3 -20 2 -20 -3z"/>
        <path d="M9035 2380 c-3 -5 -1 -10 4 -10 6 0 11 5 11 10 0 6 -2 10 -4 10 -3 0
-8 -4 -11 -10z"/>
    </g>
</svg>
